<svg xmlns="http://www.w3.org/2000/svg"
     width="130.000000pt" height="130.000000pt" viewBox="0 0 130.000000 130.000000"
     preserveAspectRatio="xMidYMid meet">

    <path d="M 124 105 L 124 63 L 99 40 L 76 85 L 76 130 L 124 105
         " stroke-width="3" stroke="#AAAAAA" fill="#EEEEEE" opacity="0.5"/>
    <path d="M 76 85 L 76 130 L 29 100 L 29 55 L 76 85
         " stroke-width="3" stroke="#AAAAAA" fill="#EEEEEE" opacity="0.5"/>

    <path d="M 100 39 L 73 93 L 25 59 L 52 14 L 100 39
         " stroke-width="3" stroke="#AAAAAA" fill="#CCCCCC" opacity="0.5"/>
    <line x1="100" y1="39" x2="127" y2="65" stroke-width="3" stroke="#AAAAAA" opacity="0.5"/>

    <path d="M 83 127 L 83 97 L 97 92 L 97 119 L 83 127
         " stroke-width="3" stroke="#AAAAAA" fill="#CCCCCC" opacity="0.5"/>
    <path d="M 103 85 L 103 98 L 114 94 L 114 82 L 103 85
         " stroke-width="3" stroke="#AAAAAA" fill="#CCCCCC" opacity="0.5"/>
    <path d="M 47 83 L 47 97 L 56 101 L 56 89 L 47 83
         " stroke-width="3" stroke="#AAAAAA" fill="#CCCCCC" opacity="0.5"/>

</svg>