<svg xmlns="http://www.w3.org/2000/svg"
     width="160.000000pt" height="150.000000pt" viewBox="0 0 160.000000 150.000000"
     preserveAspectRatio="xMidYMid meet">

    <path d="M 121 21 L 121 50 L 100 76 L 94 52 L 121 21
         " stroke-width="3" stroke="#765641" fill="#EAD7AF"/>

    <path d="M 117 34 L 117 42 L 108 52 L 108 45 L 117 34
         " stroke-width="3" stroke="#765641" fill="#B8D1E6"/>
    <path d="M 108 52 L 108 45 L 99 54 L 99 61 L 108 52
         " stroke-width="3" stroke="#765641" fill="#B8D1E6"/>

    <path d="M 121 20 L 96 5 L 61 42 L 94 52 L 121 20
         " stroke-width="3" stroke="#765641" fill="#7F7F7F"/>

    <path d="M 100 54 L 100 84 L 76 113 L 76 81 L 89 47 L 100 54
         " stroke-width="3" stroke="#765641" fill="#EAD7AF"/>
    <path d="M 76 113 L 76 81 L 22 68 L 22 97 L 76 113
         " stroke-width="3" stroke="#765641" fill="#EAD7AF"/>

    <path d="M 96 65 L 96 77 L 91 81 L 91 69 L 96 65
         " stroke-width="3" stroke="#765641" fill="#B8D1E6"/>
    <path d="M 72 87 L 72 102 L 62 99 L 62 85 L 72 87
         " stroke-width="3" stroke="#765641" fill="#B8D1E6"/>
    <path d="M 54 82 L 54 98 L 49 96 L 49 80 L 54 82
         " stroke-width="3" stroke="#765641" fill="#B8D1E6"/>

    <path d="M 89 47 L 76 81 L 22 68 L 34 35 L 89 47
         " stroke-width="3" stroke="#765641" fill="#7F7F7F"/>


</svg>