<svg xmlns="http://www.w3.org/2000/svg"
     width="220.000000pt" height="170.000000pt" viewBox="0 0 220.000000 170.000000"
     preserveAspectRatio="xMidYMid meet">

    <path d="M 53 67 L 53 108 L 82 140 L 82 93 L 53 67
         " stroke-width="3" stroke="#765641" fill="#EAD7AF"/>
    <path d="M 53 67 L 82 93 L 70 46 L 53 67
         " stroke-width="3" stroke="#765641" fill="#EAD7AF"/>
    <path d="M 82 140 L 82 93 L 109 81 L 109 128 L 82 140
         " stroke-width="3" stroke="#765641" fill="#EAD7AF"/>
    <path d="M 109 81 L 109 128 L 127 143 L 127 96 L 116 56 L 81 43 L 77 54 L 109 81
         " stroke-width="3" stroke="#765641" fill="#EAD7AF"/>
    <path d="M 116 56 L 108 26 L 90 42 L 116 56
         " stroke-width="3" stroke="#765641" fill="#B97A57"/>
    <path d="M 127 143 L 127 96 L 145 89 L 145 132 L 127 143
         " stroke-width="3" stroke="#765641" fill="#EAD7AF"/>
    <path d="M 145 89 L 145 132 L 177 162 L 177 115 L 145 89
         " stroke-width="3" stroke="#765641" fill="#EAD7AF"/>
    <path d="M 177 162 L 177 115 L 190 75 L 207 98 L 207 142 L 177 162
         " stroke-width="3" stroke="#765641" fill="#EAD7AF"/>
    <path d="M 191 69 L 192 76 L 186 71 L 191 69
         " stroke-width="3" stroke="#765641" fill="#EAD7AF"/>

    <path d="M 77 134 L 77 97 L 58 81 L 58 113 L 77 134
         " stroke-width="3" stroke="#765641" fill="#B97A57"/>
    <path d="M 145 132 L 145 100 L 154 106 L 154 141 L 145 132
         " stroke-width="3" stroke="#765641" fill="#B97A57"/>

    <path d="M 96 99 L 96 121 L 104 118 L 104 95 L 96 99
         " stroke-width="3" stroke="#765641" fill="#B8D1E6"/>
    <path d="M 114 98 L 114 117 L 122 124 L 122 103 L 114 98
         " stroke-width="3" stroke="#765641" fill="#B8D1E6"/>
    <path d="M 162 113 L 162 130 L 169 137 L 169 119 L 162 113
         " stroke-width="3" stroke="#765641" fill="#B8D1E6"/>
    <path d="M 182 122 L 182 142 L 190 137 L 190 117 L 182 122
         " stroke-width="3" stroke="#765641" fill="#B8D1E6"/>
    <path d="M 195 115 L 195 134 L 202 130 L 202 112 L 195 115
         " stroke-width="3" stroke="#765641" fill="#B8D1E6"/>

    <line x1="194" y1="85" x2="194" y2="95" stroke-width="3" stroke="#765641"/>
    <line x1="188" y1="89" x2="188" y2="100" stroke-width="3" stroke="#765641"/>
    <line x1="105" y1="35" x2="105" y2="45" stroke-width="3" stroke="#765641"/>
    <line x1="69" y1="56" x2="69" y2="65" stroke-width="3" stroke="#765641"/>

    <path d="M 108 25 L 127 96 L 194 68 L 173 5 L 108 25
         " stroke-width="3" stroke="#765641" fill="#D87254"/>
    <path d="M 97 35 L 70 45 L 83 93 L 110 81 L 97 35
         " stroke-width="3" stroke="#765641" fill="#D87254"/>
    <path d="M 145 88 L 146 39 L 190 74 L 176 116 L 145 88
         " stroke-width="3" stroke="#765641" fill="#DA5E53"/>
    <path d="M 71 71 L 85 95 L 38 115 L 23 89 L 71 71
         " stroke-width="3" stroke="#765641" fill="#DA5E53"/>
    <path d="M 71 71 L 23 89 L 7 84 L 52 66 L 71 71
         " stroke-width="3" stroke="#765641" fill="#DA5E53"/>
    <path d="M 7 84 L 38 115 L 23 89 L 7 84
         " stroke-width="3" stroke="#765641" fill="#B97A57"/>
    <line x1="42" y1="113" x2="42" y2="154" stroke-width="3" stroke="#765641"/>
    <line x1="12" y1="90" x2="12" y2="128" stroke-width="3" stroke="#765641"/>

</svg>