<svg xmlns="http://www.w3.org/2000/svg"
     width="150.000000pt" height="100.000000pt" viewBox="0 0 150.000000 100.000000"
     preserveAspectRatio="xMidYMid meet">

    <path d="M 128 35 L 128 58 L 35 81 L 35 55 L 128 35
         " stroke-width="3" stroke="#765641" fill="#EAD7AF"/>
    <path d="M 35 81 L 35 55 L 5 28 L 5 53 L 35 81
         " stroke-width="3" stroke="#765641" fill="#EAD7AF"/>

    <path d="M 100 5 L 129 34 L 35 57 L 6 26 L 100 5
         " stroke-width="3" stroke="#765641" fill="#D87254"/>

    <path d="M 44 55 L 44 72 L 50 71 L 50 53 L 44 55
         " stroke-width="3" stroke="#765641" fill="#B97A57"/>
    <path d="M 64 50 L 64 67 L 70 66 L 70 48 L 64 50
         " stroke-width="3" stroke="#765641" fill="#B97A57"/>
    <path d="M 88 43 L 88 60 L 94 59 L 94 42 L 88 43
         " stroke-width="3" stroke="#765641" fill="#B97A57"/>
    <path d="M 109 39 L 109 56 L 114 55 L 114 37 L 109 39
         " stroke-width="3" stroke="#765641" fill="#B97A57"/>

    <path d="M 10 33 L 10 49 L 18 58 L 18 40 L 10 33
         " stroke-width="3" stroke="#765641" fill="#B97A57"/>
    <path d="M 23 44 L 23 63 L 30 68 L 30 51 L 23 44
         " stroke-width="3" stroke="#765641" fill="#B97A57"/>

</svg>