<svg xmlns="http://www.w3.org/2000/svg"
     width="300.000000pt" height="180.000000pt" viewBox="0 0 300.000000 180.000000"
     preserveAspectRatio="xMidYMid meet">

    <path d="M 10 92 L 10 54 L 73 102 L 73 139 L 10 92" stroke-width="3" stroke="#765641" fill="#EAD7AF"/>
    <path d="M 73 102 L 73 139 L 143 114 L 143 77 L 73 102" stroke-width="3" stroke="#765641" fill="#EAD7AF"/>
    <path d="M 143 114 L 143 77 L 179 98 L 179 136 L 143 114" stroke-width="3" stroke="#765641" fill="#EAD7AF"/>
    <path d="M 179 98 L 179 136 L 245 106 L 245 70 L 179 98" stroke-width="3" stroke="#765641" fill="#EAD7AF"/>
    <path d="M 233 42 L 233 62 L 210 53 L 233 42" stroke-width="3" stroke="#765641" fill="#EAD7AF"/>
    <path d="M 119 122 L 119 116 L 129 123 L 129 130 L 119 122" stroke-width="3" stroke="#765641" fill="#EAD7AF"/>
    <path d="M 129 123 L 129 130 L 153 120 L 153 114 L 129 123" stroke-width="3" stroke="#765641" fill="#EAD7AF"/>
    <path d="M 129 123 L 153 114 L 143 107 L 119 116 L 129 123" stroke-width="3" stroke="#765641" fill="#B97A54"/>

    <path d="M 16 64 L 16 81 L 30 93 L 30 76 L 16 64" stroke-width="3" stroke="#765641" fill="#B8D1E6"/>
    <path d="M 48 91 L 48 106 L 60 114 L 60 100 L 48 91" stroke-width="3" stroke="#765641" fill="#B8D1E6"/>
    <path d="M 85 103 L 85 120 L 104 115 L 104 97 L 85 103" stroke-width="3" stroke="#765641" fill="#B8D1E6"/>
    <path d="M 135 88 L 135 100 L 140 100 L 140 86 L 135 88" stroke-width="3" stroke="#765641" fill="#B8D1E6"/>
    <path d="M 120 115 L 120 92 L 130 88 L 130 112 L 120 115" stroke-width="3" stroke="#765641" fill="#E0E0E0"/>
    <path d="M 196 109 L 196 129 L 210 122 L 210 109 L 196 109" stroke-width="3" stroke="#765641" fill="#B8D1E6"/>

    <path d="M 179 136 L 245 106 L 289 138 L 225 169 L 179 136" stroke-width="3" stroke="#765641" fill="#B97A54"/>

    <path d="M 7 51 L 73 102 L 71 39 L 7 51" stroke-width="3" stroke="#765641" fill="#DA5E53"/>
    <path d="M 73 102 L 71 39 L 174 9 L 237 40 L 73 102" stroke-width="3" stroke="#765641" fill="#D87254"/>
    <path d="M 71 39 L 174 9 L 141 14 L 7 51 L 71 39" stroke-width="3" stroke="#765641" fill="#DA5E53"/>
    <path d="M 144 77 L 164 30 L 197 46 L 179 99 L 144 77" stroke-width="3" stroke="#765641" fill="#DA5E53"/>
    <path d="M 179 99 L 197 46 L 246 69 L 179 99" stroke-width="3" stroke="#765641" fill="#D87254"/>
    <path d="M 179 99 L 246 69 L 291 107 L 228 139 L 179 99" stroke-width="3" stroke="#765641" fill="#C3C3C3"/>

    <line x1="225" y1="135" x2="225" y2="168" stroke-width="3" stroke="#765641"/>
    <line x1="288" y1="108" x2="288" y2="138" stroke-width="3" stroke="#765641"/>



</svg>