<svg xmlns="http://www.w3.org/2000/svg"
     width="160.000000pt" height="130.000000pt" viewBox="0 0 160.000000 130.000000"
     preserveAspectRatio="xMidYMid meet">

    <path d="M 86 44 L 86 57 L 68 67 L 102 74 L 129 66 L 111 103 L 124 107 L 139 68 L 150 61 L 86 45" stroke-width="3" stroke="#765641" fill="#B97A54"/>
    <path d="M 150 45 L 150 60 L 86 45 L 86 32 L 150 45" stroke-width="3" stroke="#765641" fill="#EAD7AF"/>
    <path d="M 128 58 L 128 66 L 112 101 L 102 110 L 102 75 L 128 58" stroke-width="3" stroke="#765641" fill="#EAD7AF"/>
    <path d="M 120 111 L 120 97 L 126 80 L 132 75 L 140 52 L 150 45 L 150 83 L 120 111" stroke-width="3" stroke="#765641" fill="#EAD7AF"/>

    <path d="M 16 52 L 16 88 L 31 93 L 31 55 L 16 52" stroke-width="3" stroke="#765641" fill="#EAD7AF"/>

    <path d="M 31 32 L 31 98 L 61 106 L 61 38 L 31 32" stroke-width="3" stroke="#765641" fill="#EAD7AF"/>
    <path d="M 61 106 L 61 38 L 86 28 L 86 58 L 69 67 L 69 102 L 61 106" stroke-width="3" stroke="#765641" fill="#EAD7AF"/>

    <path d="M 69 67 L 69 102 L 114 115 L 114 102 L 102 98 L 102 73 L 69 67" stroke-width="3" stroke="#765641" fill="#EAD7AF"/>

    <path d="M 90 130 L 21 109 L 31 97 L 62 108 L 69 102 L 107 113 L 90 130" stroke-width="3" stroke="#765641" fill="#B97A54"/>

    <path d="M 31 86 L 21 93 L 21 109 L 31 98 31 86" stroke-width="3" stroke="#765641" fill="#EAD7AF"/>
    <path d="M 21 93 L 21 109 L 90 130 L 90 121 L 83 112 L 21 93" stroke-width="3" stroke="#765641" fill="#EAD7AF"/>

    <path d="M 43 61 L 43 44 L 46 41 L 50 44 L 50 62 L 43 61" stroke-width="3" stroke="#765641" fill="#B8D1E6"/>
    <path d="M 50 74 L 56 75 L 56 91 L 50 90 L 50 74" stroke-width="3" stroke="#765641" fill="#B8D1E6"/>
    <path d="M 35 98 L 35 70 L 45 71 L 45 100 L 35 98" stroke-width="3" stroke="#765641" fill="#B97A57"/>
    <path d="M 77 90 L 77 78 L 92 81 L 92 94 L 77 90" stroke-width="3" stroke="#765641" fill="#B8D1E6"/>
    <path d="M 106 80 L 106 93 L 110 91 L 110 77 L 106 80" stroke-width="3" stroke="#765641" fill="#B8D1E6"/>
    <path d="M 65 57 L 65 46 L 68 41 L 70 42 L 70 53 L 65 57" stroke-width="3" stroke="#765641" fill="#B8D1E6"/>
    <path d="M 77 52 L 77 40 L 79 36 L 82 38 L 82 54 L 77 52" stroke-width="3" stroke="#765641" fill="#B8D1E6"/>

    <path d="M 67 68 L 75 52 L 100 57 L 106 76 L 67 68" stroke-width="3" stroke="#765641" fill="#D87254"/>
    <path d="M 100 57 L 106 76 L 129 58 L 117 45 L 100 57" stroke-width="3" stroke="#765641" fill="#DA5E53"/>

    <path d="M 8 50 L 30 42 L 30 56 8 50" stroke-width="3" stroke="#765641" fill="#D87254"/>
    <path d="M 26 31 L 68 39 L 57 8 L 26 31" stroke-width="3" stroke="#765641" fill="#D87254"/>
    <path d="M 68 39 L 57 8 L 90 26 L 68 39" stroke-width="3" stroke="#765641" fill="#DA5E53"/>
    <path d="M 35 65 L 47 68 L 42 77 L 30 73 L 35 65" stroke-width="3" stroke="#765641" fill="#D87254"/>
</svg>