<svg xmlns="http://www.w3.org/2000/svg"
     width="160.000000pt" height="150.000000pt" viewBox="0 0 160.000000 150.000000"
     preserveAspectRatio="xMidYMid meet">


    <path d="M 51 105 L 51 127 L 78 114 L 78 99 L 51 105
         " stroke-width="3" stroke="#765641" fill="#EAD7AF"/>
    <path d="M 78 114 L 78 99 L 95 106 L 95 122 L 78 114
         " stroke-width="3" stroke="#765641" fill="#EAD7AF"/>
    <path d="M 51 127 L 78 114 L 93 121 L 89 128 L 51 127
         " stroke-width="3" stroke="#765641" fill="#B97A54"/>
    <path d="M 51 95 L 51 127 L 31 108 L 31 77 L 51 95
         " stroke-width="3" stroke="#765641" fill="#EAD7AF"/>
    <path d="M 71 110 L 71 101 L 60 100 L 60 114 L 71 110
         " stroke-width="3" stroke="#765641" fill="#B8D1E6"/>
    <path d="M 89 82 L 89 106 L 51 105 L 51 95 L 89 82
         " stroke-width="3" stroke="#765641" fill="#EAD7AF"/>
    <path d="M 148 52 L 148 101 L 89 128 L 89 81 L 115 28 L 148 52
         " stroke-width="3" stroke="#765641" fill="#EAD7AF"/>


    <path d="M 139 51 L 139 75 L 133 77 L 133 54 L 139 51
         " stroke-width="3" stroke="#765641" fill="#B8D1E6"/>
    <path d="M 126 55 L 126 79 L 112 84 L 112 59 L 126 55
         " stroke-width="3" stroke="#765641" fill="#B8D1E6"/>
    <path d="M 140 84 L 140 96 L 117 106 L 117 93 L 140 84
         " stroke-width="3" stroke="#765641" fill="#B8D1E6"/>
    <path d="M 82 100 L 82 85 L 74 85 L 74 100 L 82 100
         " stroke-width="3" stroke="#765641" fill="#B8D1E6"/>
    <path d="M 47 123 L 47 104 L 43 101 L 43 118  L 47 123
         " stroke-width="3" stroke="#765641" fill="#B8D1E6"/>

    <path d="M 116 28 L 84 90 L 53 96 L 28 76 L 67 9 L 116 28
         " stroke-width="3" stroke="#765641" fill="#7F7F7F"/>

    <path d="M 32 68 L 43 75 L 31 81 L 22 73 L 32 68
         " stroke-width="3" stroke="#765641" fill="#7F7F7F"/>

    <path d="M 31 81 L 22 73 L 22 94 L 31 102 L 31 81
         " stroke-width="3" stroke="#765641" fill="#B8D1E6"/>
    <path d="M 31 102 L 31 81 L 43 75 L 37 84 L 37 99 L 31 102
         " stroke-width="3" stroke="#765641" fill="#7F7F7F"/>

    <line x1="116" y1="28" x2="153" y2="55" stroke-width="3" stroke="#765641"/>

</svg>