<svg xmlns="http://www.w3.org/2000/svg"
     width="160.000000pt" height="150.000000pt" viewBox="0 0 160.000000 150.000000"
     preserveAspectRatio="xMidYMid meet">


    <path d="M 152 111 L 152 55 L 126 24 L 106 70 L 106 129 L 152 111
         " stroke-width="3" stroke="#765641" fill="#EAD7AF"/>
    <path d="M 106 70 L 106 129 L 49 87 L 49 42 L 106 70
         " stroke-width="3" stroke="#765641" fill="#EAD7AF"/>

    <path d="M 125 24 L 105 71 L 49 43 L 72 3 L 125 24
         " stroke-width="3" stroke="#765641" fill="#7F7F7F"/>

    <path d="M 93 46 L 93 119 L 66 100 L 66 34 L 93 46
         " stroke-width="3" stroke="#765641" fill="#7F7F7F"/>
    <path d="M 66 34 L 93 46 L 106 34 L 83 25 L 66 34
         " stroke-width="3" stroke="#765641" fill="#7F7F7F"/>
    <path d="M 93 46 L 106 34 L 93 64 L 93 46
         " stroke-width="3" stroke="#765641" fill="#7F7F7F"/>

    <path d="M 143 51 L 143 75 L 133 78 L 133 54 L 143 51
         " stroke-width="3" stroke="#765641" fill="#B8D1E6"/>
    <path d="M 123 57 L 123 82 L 114 85 L 114 60 L 123 57
         " stroke-width="3" stroke="#765641" fill="#B8D1E6"/>
    <path d="M 141 89 L 141 104 L 133 107 L 133 92 L 141 89
         " stroke-width="3" stroke="#765641" fill="#B8D1E6"/>
    <path d="M 121 96 L 121 111 L 113 114 L 113 98 L 121 96
         " stroke-width="3" stroke="#765641" fill="#B8D1E6"/>
    <path d="M 88 51 L 88 63 L 83 61 L 83 49 L 88 51
         " stroke-width="3" stroke="#765641" fill="#B8D1E6"/>
    <path d="M 75 45 L 75 59 L 70 56 L 70 44 L 75 45
         " stroke-width="3" stroke="#765641" fill="#B8D1E6"/>

    <path d="M 78 83 L 78 108 L 70 102 L 70 79 L 78 83
         " stroke-width="3" stroke="#765641" fill="#B97A57"/>

    <path d="M 80 110 L 47 123 L 20 103 L 52 89 L 80 110
         " stroke-width="3" stroke="#765641" fill="#B97A54"/>

    <path d="M 48 58 L 78 78 L 46 92 L 18 70 L 48 58
         " stroke-width="3" stroke="#765641" fill="#7F7F7F"/>

    <line x1="46" y1="92" x2="46" y2="123" stroke-width="3" stroke="#765641"/>
    <line x1="18" y1="70" x2="18" y2="103" stroke-width="3" stroke="#765641"/>

</svg>