<svg xmlns="http://www.w3.org/2000/svg"
     width="160.000000pt" height="100.000000pt" viewBox="0 0 160.000000 100.000000"
     preserveAspectRatio="xMidYMid meet">

    <path d="M 18 22 L 18 50 L 33 67 L 33 36 L 26 22" stroke-width="3" stroke="#765641" fill="#EAD7AF"/>
    <path d="M 33 36 L 33 67 L 47 64 L 47 34" stroke-width="3" stroke="#765641" fill="#EAD7AF"/>
    <path d="M 47 34 L 47 64 L 73 94 L 73 62" stroke-width="3" stroke="#765641" fill="#EAD7AF"/>
    <path d="M 149 24 L 149 54 L 93 66 L 81 37" stroke-width="3" stroke="#765641" fill="#EAD7AF"/>
    <path d="M 73 62 L 73 94 L 98 89 L 98 61 L 108 59 L 96 50" stroke-width="3" stroke="#765641" fill="#EAD7AF"/>

    <path d="M 51 46 L 51 57 L 56 62 L 56 52 L 51 46" stroke-width="3" stroke="#765641" fill="#B8D1E6"/>
    <path d="M 62 58 L 62 68 L 68 75 L 68 66 L 62 58" stroke-width="3" stroke="#765641" fill="#B8D1E6"/>
    <path d="M 80 70 L 80 82 L 90 80 L 90 68 L 80 70" stroke-width="3" stroke="#765641" fill="#B8D1E6"/>
    <path d="M 139 32 L 139 49 L 144 48 L 144 31 L 139 32" stroke-width="3" stroke="#765641" fill="#B8D1E6"/>
    <path d="M 127 34 L 127 52 L 133 51 L 133 32 L 127 34" stroke-width="3" stroke="#765641" fill="#B8D1E6"/>
    <path d="M 115 37 L 115 55 L 121 53 L 121 36 L 115 37" stroke-width="3" stroke="#765641" fill="#B8D1E6"/>
    <path d="M 102 54 L 102 39 L 108 38 L 108 58" stroke-width="3" stroke="#765641" fill="#B8D1E6"/>


    <path d="M 98 89 L 108 87 L 98 78" stroke-width="3" stroke="#765641" fill="#B97A54"/>
    <line x1="108" y1="87" x2="108" y2="59" stroke-width="3" stroke="#765641"/>

    <path d="M 22 53 L 22 30 L 29 36 L 29 62 L 22 53" stroke-width="3" stroke="#765641" fill="#E0E0E0"/>


    <path d="M 58 16 L 130 4 L 155 24 L 83 37" stroke-width="3" stroke="#765641" fill="#D87254"/>
    <path d="M 47 35 L 58 16 L 97 49 L 79 68 L 47 35" stroke-width="3" stroke="#765641" fill="#DA5E53"/>
    <line x1="97" y1="49" x2="112" y2="61" stroke-width="3" stroke="#765641"/>
    <path d="M 26 22 L 29 38 L 47 35 L 58 16 L 26 22" stroke-width="3" stroke="#765641" fill="#D87254"/>
    <line x1="26" y1="22" x2="12" y2="22" stroke-width="3" stroke="#765641"/>

</svg>