<svg xmlns="http://www.w3.org/2000/svg"
     width="200.000000pt" height="170.000000pt" viewBox="0 0 200.000000 170.000000"
     preserveAspectRatio="xMidYMid meet">

    <path d="M 172 100 L 172 80 L 162 77 L 147 90 L 147 111 L 172 100" stroke-width="3" stroke="#765641" fill="#EAD7AF"/>
    <path d="M 147 90 L 147 111 L 127 94 L 127 74 L 149 90" stroke-width="3" stroke="#765641" fill="#EAD7AF"/>
    <path d="M 147 90 L 162 77 L 142 65L 127 74  L 147 90" stroke-width="3" stroke="#765641" fill="#D87254"/>

    <path d="M 155 163 L 155 145 L 148 148 L 148 167 L 155 163" stroke-width="3" stroke="#765641" fill="#EAD7AF"/>
    <path d="M 148 148 L 148 167 L 143 162 L 143 144 L 148 148" stroke-width="3" stroke="#765641" fill="#EAD7AF"/>
    <path d="M 143 144 L 148 148 L 155 145 L 150 140 L 143 144" stroke-width="3" stroke="#765641" fill="#EAD7AF"/>

    <path d="M 193 143 L 193 125 L 186 128 L 186 147 L 193 143" stroke-width="3" stroke="#765641" fill="#EAD7AF"/>
    <path d="M 186 128 L 186 147 L 181 142 L 181 124 L 186 128" stroke-width="3" stroke="#765641" fill="#EAD7AF"/>
    <path d="M 181 124 L 186 128 L 193 125 L 188 120 L 181 124" stroke-width="3" stroke="#765641" fill="#EAD7AF"/>

    <line x1="182" y1="129" x2="153" y2="141" stroke-width="3" stroke="#B97A57"/>
    <line x1="182" y1="145" x2="156" y2="158" stroke-width="3" stroke="#B97A57"/>
    <line x1="182" y1="129" x2="182" y2="145" stroke-width="3" stroke="#B97A57"/>
    <line x1="176" y1="131" x2="176" y2="147" stroke-width="3" stroke="#B97A57"/>
    <line x1="170" y1="133" x2="170" y2="149" stroke-width="3" stroke="#B97A57"/>
    <line x1="164" y1="136" x2="164" y2="153" stroke-width="3" stroke="#B97A57"/>

</svg>