<svg xmlns="http://www.w3.org/2000/svg"
     width="200.000000pt" height="170.000000pt" viewBox="0 0 200.000000 170.000000"
     preserveAspectRatio="xMidYMid meet">

    <path d="M 18 79 L 18 45 L 72 45 L 72 79 L 18 79" stroke-width="3" stroke="#765641" fill="#EAD7AF"/>
    <path d="M 72 45 L 72 79 L 84 68 L 84 38 L 72 45" stroke-width="3" stroke="#765641" fill="#EAD7AF"/>
    <path d="M 84 64 L 84 38 L 105 38 L 105 64 L 84 64" stroke-width="3" stroke="#765641" fill="#EAD7AF"/>
    <path d="M 105 38 L 105 64 L 115 52 L 115 31 L 105 38" stroke-width="3" stroke="#765641" fill="#EAD7AF"/>

    <path d="M 8 45 L 48 25 L 78 45 L 8 45" stroke-width="3" stroke="#765641" fill="#D87254"/>
    <path d="M 48 25 L 78 45 L 88 37 L 65 19 L 48 25" stroke-width="3" stroke="#765641" fill="#DA5E53"/>
    <path d="M 88 37 L 65 19 L 75 10 L 110 37 L 88 37" stroke-width="3" stroke="#765641" fill="#D87254"/>
    <path d="M 75 10 L 110 37 L 120 27 L 87 6 L 75 10" stroke-width="3" stroke="#765641" fill="#DA5E53"/>

    <path d="M 25 53 L 25 65 L 38 65 L 38 53 L 25 53" stroke-width="3" stroke="#765641" fill="#B8D1E6"/>
    <path d="M 49 53 L 49 65 L 61 65 L 61 53 L 49 53" stroke-width="3" stroke="#765641" fill="#B8D1E6"/>

    <path d="M 56 94 L 56 72 L 71 62 L 88 70 L 88 94 L 56 94" stroke-width="3" stroke="#765641" fill="#EAD7AF"/>
    <path d="M 88 70 L 88 94 L 95 87 L 95 69 L 88 70" stroke-width="3" stroke="#765641" fill="#EAD7AF"/>

    <path d="M 72 63 L 96 74 L 103 66 L 83 54 L 72 63" stroke-width="3" stroke="#765641" fill="#DA5E53"/>
    <line x1="72" y1="63" x2="51" y2="75" stroke-width="3" stroke="#765641"/>

    <path d="M 65 163 L 65 145 L 58 148 L 58 167 L 65 163" stroke-width="3" stroke="#765641" fill="#EAD7AF"/>
    <path d="M 58 148 L 58 167 L 53 162 L 53 144 L 58 148" stroke-width="3" stroke="#765641" fill="#EAD7AF"/>
    <path d="M 53 144 L 58 148 L 65 145 L 60 140 L 53 144" stroke-width="3" stroke="#765641" fill="#EAD7AF"/>

    <path d="M 103 143 L 103 125 L 96 128 L 96 147 L 103 143" stroke-width="3" stroke="#765641" fill="#EAD7AF"/>
    <path d="M 96 128 L 96 147 L 91 142 L 91 124 L 96 128" stroke-width="3" stroke="#765641" fill="#EAD7AF"/>
    <path d="M 91 124 L 96 128 L 103 125 L 98 120 L 91 124" stroke-width="3" stroke="#765641" fill="#EAD7AF"/>

    <line x1="92" y1="129" x2="63" y2="141" stroke-width="3" stroke="#B97A57"/>
    <line x1="92" y1="145" x2="66" y2="158" stroke-width="3" stroke="#B97A57"/>
    <line x1="92" y1="129" x2="92" y2="145" stroke-width="3" stroke="#B97A57"/>
    <line x1="86" y1="131" x2="86" y2="147" stroke-width="3" stroke="#B97A57"/>
    <line x1="80" y1="133" x2="80" y2="149" stroke-width="3" stroke="#B97A57"/>
    <line x1="74" y1="136" x2="74" y2="153" stroke-width="3" stroke="#B97A57"/>
    <line x1="68" y1="139" x2="68" y2="156" stroke-width="3" stroke="#B97A57"/>

</svg>