<svg xmlns="http://www.w3.org/2000/svg"
     width="200.000000pt" height="170.000000pt" viewBox="0 0 200.000000 170.000000"
     preserveAspectRatio="xMidYMid meet">

    <path d="M 52 32 L 52 62 L 65 71 L 85 55 L 52 32" stroke-width="3" stroke="#765641" fill="#EAD7AF"/>
    <path d="M 172 66 L 172 89 L 160 93 L 160 70 L 172 66" stroke-width="3" stroke="#765641" fill="#EAD7AF"/>

    <path d="M 172 89 L 160 93 L 160 107 L 187 98 L 172 89" stroke-width="3" stroke="#765641" fill="#B97A54"/>
    <path d="M 187 98 L 185 98 L 185 63 L 188 62 L 187 98" stroke-width="3" stroke="#765641" fill="#B97A54"/>

    <path d="M 47 75 L 47 111 L 82 135 L 82 95 L 47 75" stroke-width="3" stroke="#765641" fill="#EAD7AF"/>
    <path d="M 82 135 L 82 95 L 160 70 L 160 107 L 82 135" stroke-width="3" stroke="#765641" fill="#EAD7AF"/>

    <path d="M 90 103 L 90 117 L 103 113 L 103 100 L 90 103" stroke-width="3" stroke="#765641" fill="#B8D1E6"/>
    <path d="M 117 95 L 117 108 L 130 104 L 130 91 L 117 95" stroke-width="3" stroke="#765641" fill="#B8D1E6"/>
    <path d="M 144 86 L 144 100 L 153 97 L 153 83 L 144 86" stroke-width="3" stroke="#765641" fill="#B8D1E6"/>
    <path d="M 57 43 L 57 55 L 65 59 L 65 47 L 57 43" stroke-width="3" stroke="#765641" fill="#B8D1E6"/>
    <path d="M 168 71 L 168 80 L 160 82 L 160 72 L 168 71" stroke-width="3" stroke="#765641" fill="#B8D1E6"/>

    <path d="M 48 32 L 80 53 L 126 39 L 131 26 L 96 10 L 48 32" stroke-width="3" stroke="#765641" fill="#DA5E53"/>
    <path d="M 41 74 L 83 99 L 89 48 L 41 74" stroke-width="3" stroke="#765641" fill="#DA5E53"/>
    <path d="M 83 99 L 89 48 L 126 38 L 131 26 L 194 63 L 83 99" stroke-width="3" stroke="#765641" fill="#D87254"/>
</svg>