<svg xmlns="http://www.w3.org/2000/svg"
     width="212.000000pt" height="191.000000pt" viewBox="0 0 212.000000 191.000000"
     preserveAspectRatio="xMidYMid meet">


    <path d="M 13 47 L 27 43 L 27 60" stroke-width="3" stroke="#765641" fill="#B97A57"/>
    <path d="M 27 66 L 13 53 L 13 47 L 27 60" stroke-width="3" stroke="#765641" fill="#EAD7AF"/>

    <path d="M 27 36 L 27 66 L 69 103 L 69 69" stroke-width="3" stroke="#765641" fill="#EAD7AF"/>
    <path d="M 69 103 L 83 98 L 83 89 L 104 81 L 104 68 L 79 76 L 69 69 L 69 103" stroke-width="3" stroke="#765641" fill="#EAD7AF"/>
    <path d="M 116 63 L 116 97 L 188 66 L 188 36" stroke-width="3" stroke="#765641" fill="#EAD7AF"/>
    <path d="M 104 81 L 104 67 L 116 63 L 116 97" stroke-width="3" stroke="#765641" fill="#EAD7AF"/>

    <!-- lepcso -->

    <path d="M 83 98 L 96 105 L 116 97 L 116 92 L 110 89 L 110 84 L 104 81 L 83 89 L 83 98" stroke-width="3" stroke="#765641" fill="#EAD7AF"/>
    <path d="M 83 98 L 96 105 L 96 99 L 91 97 L 91 93 L 83 89 L 83 98" stroke-width="3" stroke="#765641" fill="#EAD7AF"/>
    <path d="M 91 93 L 110 85 M 96 99 L 116 91" stroke-width="3" stroke="#765641" fill="#EAD7AF"/>

    <path d="M 33 41 L 33 55 L 40 60 L 40 46" stroke-width="3" stroke="#765641" fill="#B8D1E6"/>
    <path d="M 44 49 L 44 63 L 51 69 L 51 53" stroke-width="3" stroke="#765641" fill="#B8D1E6"/>
    <path d="M 55 58 L 55 73 L 62 81 L 62 64" stroke-width="3" stroke="#765641" fill="#B8D1E6"/>
    <path d="M 77 75 L 77 85 L 87 82 L 87 74" stroke-width="3" stroke="#765641" fill="#B8D1E6"/>

    <path d="M 131 89 L 131 64 L 180 45 L 180 68" stroke-width="3" stroke="#765641" fill="#E0E0E0"/>
    <path d="M 94 83 L 94 71 L 104 67 L 104 80" stroke-width="3" stroke="#765641" fill="#E0E0E0"/>


    <path d="M 96 10 L 22 31 L 80 79 L 96 10" stroke-width="3" stroke="#765641" fill="#DA5E53"/>
    <path d="M 96 10 L 80 79 L 198 31 L 96 10" stroke-width="3" stroke="#765641" fill="#D87254"/>
</svg>
