<svg xmlns="http://www.w3.org/2000/svg"
     width="210.000000pt" height="165.000000pt" viewBox="0 0 210.000000 165.000000"
     preserveAspectRatio="xMidYMid meet">

    <path d="M 88 52 L 113 39 L 130 93" stroke-width="3" stroke="#765641" fill="#EAD7AF"/>
    <path d="M 54 118 L 54 80 L 92 121 L 93 160 L 54 118" stroke-width="3" stroke="#765641" fill="#EAD7AF"/>
    <path d="M 201 73 L 201 122 L 93 160 L 93 121 L 131 96 L 201 73" stroke-width="3" stroke="#765641" fill="#EAD7AF"/>
    <line x1="130" y1="97" x2="131" y2="146" stroke-width="3" stroke="#765641"/>

    <path d="M 101 49 L 101 57 L 106 63 L 106 54 L 101 49" stroke-width="3" stroke="#765641" fill="#B8D1E6"/>
    <path d="M 110 59 L 110 68 L 116 73 L 116 65 L 110 59" stroke-width="3" stroke="#765641" fill="#B8D1E6"/>
    <path d="M 144 109 L 144 120 L 152 118 L 152 107 L 144 109" stroke-width="3" stroke="#765641" fill="#B8D1E6"/>

    <path d="M 157 137 L 157 102 L 174 97 L 174 131 L 157 137" stroke-width="3" stroke="#765641" fill="#B97A57"/>

    <path d="M 97 158 L 97 127 L 126 116 L 126 148 L 97 158" stroke-width="3" stroke="#765641" fill="#E0E0E0"/>

    <path d="M 51 77 L 89 52 L 131 97 L 95 122 L 51 77" stroke-width="3" stroke="#765641" fill="#DA5E53"/>
    <path d="M 114 39 L 131 98 L 204 73 L 184 13 L 114 39" stroke-width="3" stroke="#765641" fill="#DA5E53"/>

    <path d="M 129 48 L 136 46 L 136 25 L 129 26 L 129 48" stroke-width="3" stroke="#765641" fill="#DA5E53"/>
    <path d="M 127 23 L 129 26 L 135 25 L 133 21 L 127 23" stroke-width="3" stroke="#765641" fill="#DA5E53"/>
    <path d="M 129 48 L 127 40 L 127 24 L 129 26 L 129 48" stroke-width="3" stroke="#765641" fill="#DA5E53"/>

    <path d="M 140 56 L 146 72 L 155 69 L 149 53 L 140 56" stroke-width="3" stroke="#765641" fill="#B8D1E6"/>
    <path d="M 160 50 L 166 66 L 176 63 L 170 47 L 160 50" stroke-width="3" stroke="#765641" fill="#B8D1E6"/>
</svg>