<svg xmlns="http://www.w3.org/2000/svg"
     width="150.000000pt" height="120.000000pt" viewBox="0 0 150.000000 120.000000"
     preserveAspectRatio="xMidYMid meet">

    <path d="M 8 21 L 8 55 L 31 107 L 31 69 L 8 21" stroke-width="3" stroke="#765641" fill="#EAD7AF"/>
    <path d="M 31 107 L 31 69 L 142 48 L 142 83 L 31 107" stroke-width="3" stroke="#765641" fill="#EAD7AF"/>

    <path d="M 13 31 L 13 50 L 17 56 L 17 40 L 13 31" stroke-width="3" stroke="#765641" fill="#B8D1E6"/>
    <path d="M 13 64 L 13 50 L 17 56 L 17 75 L 13 64" stroke-width="3" stroke="#765641" fill="#7F7F7F"/>

    <path d="M 22 52 L 22 74 L 27 82 L 27 64 L 22 52" stroke-width="3" stroke="#765641" fill="#B8D1E6"/>
    <path d="M 22 87 L 22 74 L 27 82 L 27 97 L 22 87" stroke-width="3" stroke="#765641" fill="#7F7F7F"/>

    <path d="M 132 54 L 132 79 L 117 82 L 117 58 L 132 54" stroke-width="3" stroke="#765641" fill="#B8D1E6"/>

    <path d="M 101 60 L 101 77 L 92 78 L 92 62 L 101 60" stroke-width="3" stroke="#765641" fill="#B8D1E6"/>
    <path d="M 101 91 L 101 77 L 92 78 L 92 93 L 101 91" stroke-width="3" stroke="#765641" fill="#7F7F7F"/>

    <path d="M 78 65 L 78 90 L 69 92 L 69 67 L 78 65" stroke-width="3" stroke="#765641" fill="#7F7F7F"/>
    <path d="M 78 90 L 65 94 L 68 100 L 84 96 L 78 90" stroke-width="3" stroke="#765641" fill="#B97A54"/>
    <path d="M 65 94 L 65 99 L 68 105 L 68 100 L 65 94" stroke-width="3" stroke="#765641" fill="#EAD7AF"/>
    <path d="M 68 105 L 68 100 L 84 96 L 84 101 L 68 105" stroke-width="3" stroke="#765641" fill="#EAD7AF"/>

    <path d="M 3 13 L 35 76 L 50 10 L 3 13" stroke-width="3" stroke="#765641" fill="#7F7F7F"/>
    <path d="M 35 76 L 50 10 L 81 6 L 149 51 L 35 76" stroke-width="3" stroke="#765641" fill="#7F7F7F"/>
    <path d="M 83 65 L 87 73 L 57 80 L 54 71 L 83 65" stroke-width="3" stroke="#765641" fill="#7F7F7F"/>

    <line x1="84" y1="96" x2="84" y2="73" stroke-width="3" stroke="#765641" />
    <line x1="68" y1="100" x2="68" y2="78" stroke-width="3" stroke="#765641" />

</svg>