<svg xmlns="http://www.w3.org/2000/svg"
     width="190.000000pt" height="150.000000pt" viewBox="0 0 190.000000 150.000000"
     preserveAspectRatio="xMidYMid meet">

    <path d="M 53 62 L 53 103 L 10 82 L 10 43 L 53 62
         " stroke-width="3" stroke="#765641" fill="#F8A284"/>
    <path d="M 77 84 L 98 30 L 81 23 L 53 62 L 53 103 L 77 84
         " stroke-width="3" stroke="#765641" fill="#F8A284"/>

    <path d="M 40 6 L 81 23 L 53 62 L 10 43 L 40 6
         " stroke-width="3" stroke="#765641" fill="#DA5E53"/>

    <path d="M 82 86 L 77 84 L 77 46 L 101 59 L 82 86
         " stroke-width="3" stroke="#765641" fill="#EAD7AF"/>
    <path d="M 98 30 L 138 47 L 101 60 L 77 46 L 98 30
         " stroke-width="3" stroke="#765641" fill="#7F7F7F"/>

    <path d="M 185 110 L 185 70 L 150 79 L 138 109 L 138 147 L 185 110
         " stroke-width="3" stroke="#765641" fill="#EAD7AF"/>
    <path d="M 138 109 L 138 147 L 82 119 L 82 79 L 138 109
         " stroke-width="3" stroke="#765641" fill="#EAD7AF"/>

    <path d="M 185 70 L 150 79 L 102 57 L 138 47 L 185 70
         " stroke-width="3" stroke="#765641" fill="#7F7F7F"/>
    <path d="M 150 79 L 102 57 L 82 79 L 138 109 L 150 79
         " stroke-width="3" stroke="#765641" fill="#7F7F7F"/>

    <path d="M 144 142 L 144 111 L 172 90 L 172 120 L 144 142
         " stroke-width="3" stroke="#765641" fill="#B8D1E6"/>
    <path d="M 88 90 L 88 110 L 98 114 L 98 94 L 88 90
         " stroke-width="3" stroke="#765641" fill="#B8D1E6"/>
    <path d="M 73 87 L 73 57 L 59 67 L 59 98 L 73 87
         " stroke-width="3" stroke="#765641" fill="#B8D1E6"/>
    <path d="M 47 79 L 47 89 L 19 78 L 19 68 L 47 79
         " stroke-width="3" stroke="#765641" fill="#B8D1E6"/>


</svg>