<svg xmlns="http://www.w3.org/2000/svg"
     width="230.000000pt" height="140.000000pt" viewBox="0 0 230.000000 140.000000"
     preserveAspectRatio="xMidYMid meet">

    <path d="M 213 85 L 213 46 L 153 85 L 153 126 L 213 85" stroke-width="3" stroke="#765641" fill="#EAD7AF"/>
    <path d="M 153 85 L 153 126 L 100 97 L 100 67 L 153 85 " stroke-width="3" stroke="#765641" fill="#EAD7AF"/>
    <path d="M 100 97 L 100 67 L 75 76 L 75 111 L 100 97" stroke-width="3" stroke="#765641" fill="#EAD7AF"/>
    <path d="M 75 76 L 75 111 L 46 93 L 46 56 L 75 76" stroke-width="3" stroke="#765641" fill="#EAD7AF"/>

    <path d="M 114 105 L 100 97 L 75 111 L 88 120 L 111 105" stroke-width="3" stroke="#765641" fill="#B97A54"/>
    <path d="M 46 93 L 34 99 L 4 76 L 46 59 L 46 93" stroke-width="3" stroke="#765641" fill="#B97A54"/>

    <path d="M 203 63 L 203 76 L 194 81 L 194 68 L 203 63" stroke-width="3" stroke="#765641" fill="#B8D1E6"/>
    <path d="M 176 80 L 176 93 L 167 98 L 167 85 L 176 80" stroke-width="3" stroke="#765641" fill="#B8D1E6"/>
    <path d="M 122 74 L 122 93 L 113 90 L 113 71 L 122 74" stroke-width="3" stroke="#765641" fill="#B8D1E6"/>

    <path d="M 101 97 L 101 72 L 108 73 L 108 101 L 101 97" stroke-width="3" stroke="#765641" fill="#B97A57"/>

    <path d="M 65 106 L 65 78 L 61 75 L 61 102 L 65 106" stroke-width="3" stroke="#765641" fill="#B8D1E6"/>
    <path d="M 55 99 L 55 70 L 51 68 L 51 96 L 55 99" stroke-width="3" stroke="#765641" fill="#B8D1E6"/>

    <path d="M 86 119 L 86 84 L 89 85 L 89 120 L 86 119" stroke-width="3" stroke="#765641" fill="#EAD7AF"/>

    <line x1="33" y1="98" x2="33" y2="64" stroke-width="3" stroke="#765641"/>
    <line x1="4" y1="77" x2="4" y2="45" stroke-width="3" stroke="#765641"/>

    <path d="M 46 59 L 33 64 L 4 44 L 61 19 L 66 23 L 48 33 L 66 45 L 46 59" stroke-width="3" stroke="#765641" fill="#D87254"/>

    <path d="M 221 42 L 150 89 L 157 31 L 221 42" stroke-width="3" stroke="#765641" fill="#DA5E53"/>
    <path d="M 150 89 L 157 31 L 99 12 L 46 34 L 150 89" stroke-width="3" stroke="#765641" fill="#D87254"/>
    <path d="M 122 19 L 113 71 L 89 85 L 95 31 L 122 19" stroke-width="3" stroke="#765641" fill="#DA5E53"/>
    <path d="M 89 85 L 95 31 L 44 55 L 89 85" stroke-width="3" stroke="#765641" fill="#D87254"/>
    <path d="M 221 42 L 105 4 L 99 12 L 157 31 L 221 42" stroke-width="3" stroke="#765641" fill="#DA5E53"/>
    <path d="M 105 4 L 99 12 L 46 34 L 105 4" stroke-width="3" stroke="#765641" fill="#DA5E53"/>

</svg>