<svg xmlns="http://www.w3.org/2000/svg"
     width="220.000000pt" height="140.000000pt" viewBox="0 0 220.000000 140.000000"
     preserveAspectRatio="xMidYMid meet">

    <path d="M 165 109 L 165 59 L 131 40 L 100 85 L 100 135 L 165 109
            " stroke-width="3" stroke="#765641" fill="#EAD7AF"/>
    <path d="M 100 135 L 100 85 L 83 77 L 83 60 L 56 43 L 56 59 L 38 49 L 38 98 L 100 135
            " stroke-width="3" stroke="#765641" fill="#EAD7AF"/>
    <path d="M 83 60 L 83 77 L 101 53 L 83 60
            " stroke-width="3" stroke="#765641" fill="#EAD7AF"/>

    <path d="M 131 40 L 74 6 L 38 48 L 56 58 L 56 43 L 73 38 L 101 53 L 84 78 L 99 88 L 131 40
            " stroke-width="3" stroke="#765641" fill="#DA5E53"/>
    <path d="M 56 43 L 73 38 L 101 53 L 83 60 L 56 43
            " stroke-width="3" stroke="#765641" fill="#DA5E53"/>

    <path d="M 147 54 L 147 76 L 131 83 L 131 61 L 147 54
            " stroke-width="3" stroke="#765641" fill="#B8D1E6"/>
    <path d="M 135 95 L 135 109 L 114 117 L 113 103 L 135 95
            " stroke-width="3" stroke="#765641" fill="#B8D1E6"/>
    <path d="M 91 103 L 91 120 L 79 114 L 79 100 L 91 103
            " stroke-width="3" stroke="#765641" fill="#B8D1E6"/>
    <path d="M 57 86 L 57 100 L 46 94 L 46 80 L 57 86
            " stroke-width="3" stroke="#765641" fill="#B8D1E6"/>
    <path d="M 79 63 L 79 73 L 71 69 L 71 58 L 79 63
            " stroke-width="3" stroke="#765641" fill="#B8D1E6"/>
    <path d="M 67 56 L 67 66 L 60 62 L 60 53 L 67 56
            " stroke-width="3" stroke="#765641" fill="#B8D1E6"/>

    <path d="M 72 95 L 72 117 L 61 111 L 61 88 L 72 95
            " stroke-width="3" stroke="#765641" fill="#B97A57"/>


    <path d="M 38 60 L 100 98 L 85 108 L 26 70 L 38 60
            " stroke-width="3" stroke="#765641" fill="#DA5E53"/>
    <line x1="26" y1="70" x2="26" y2="99" stroke-width="3" stroke="#765641"/>
    <line x1="39" y1="79" x2="39" y2="110" stroke-width="3" stroke="#765641"/>
    <line x1="52" y1="88" x2="52" y2="117" stroke-width="3" stroke="#765641"/>
    <line x1="67" y1="96" x2="67" y2="126" stroke-width="3" stroke="#765641"/>
    <line x1="85" y1="108" x2="85" y2="138" stroke-width="3" stroke="#765641"/>

</svg>