<svg xmlns="http://www.w3.org/2000/svg"
     width="190.000000pt" height="200.000000pt" viewBox="0 0 190.000000 200.000000"
     preserveAspectRatio="xMidYMid meet">

    <path d="M 135 147 L 135 178 L 82 126 L 82 86 L 135 147
         " stroke-width="3" stroke="#765641" fill="#EAD7AF"/>
    <path d="M 175 158 L 174 118 L 148 93 L 120 148 L 120 152 L 122 152 L 125 147 L 130 145 L 135 147 L 135 178 L 175 158
         " stroke-width="3" stroke="#765641" fill="#EAD7AF"/>
    <path d="M 82 126 L 82 86 L 38 107 L 38 147 L 82 126
         " stroke-width="3" stroke="#765641" fill="#EAD7AF"/>
    <path d="M 38 107 L 38 147 L 9 116 L 9 76 L 24 55 L 38 107
         " stroke-width="3" stroke="#765641" fill="#EAD7AF"/>

    <path d="M 135 178 L 121 185 L 68 132 L 82 126 L 135 178
         " stroke-width="3" stroke="#765641" fill="#B97A54"/>

    <path d="M 120 185 L 122 185 L 122 152 L 120 152 L 120 185
         " stroke-width="3" stroke="#765641" fill="#EAD7AF"/>
    <path d="M 98 162 L 100 164 L 100 130 L 98 130 L 98 162
         " stroke-width="3" stroke="#765641" fill="#EAD7AF"/>
    <path d="M 82 145 L 84 148 L 84 116 L 82 116 L 82 145
         " stroke-width="3" stroke="#765641" fill="#EAD7AF"/>

    <path d="M 140 138 L 140 156 L 149 153 L 149 136 L 140 138
         " stroke-width="3" stroke="#765641" fill="#B8D1E6"/>
    <path d="M 157 131 L 157 148 L 166 144 L 166 128 L 157 131
         " stroke-width="3" stroke="#765641" fill="#B8D1E6"/>
    <path d="M 142 113 L 142 124 L 146 123 L 146 111 L 142 113
         " stroke-width="3" stroke="#765641" fill="#B8D1E6"/>
    <path d="M 152 108 L 152 121 L 156 119 L 156 106 L 152 108
         " stroke-width="3" stroke="#765641" fill="#B8D1E6"/>
    <path d="M 50 125 L 50 107 L 58 104 L 58 122 L 50 125
         " stroke-width="3" stroke="#765641" fill="#B8D1E6"/>
    <path d="M 15 86 L 15 101 L 19 105 L 19 89 L 15 86
         " stroke-width="3" stroke="#765641" fill="#B8D1E6"/>
    <path d="M 26 99 L 26 113 L 31 118 L 31 102 L 26 99
         " stroke-width="3" stroke="#765641" fill="#B8D1E6"/>
    <path d="M 22 66 L 22 75 L 23 75 L 23 67 L 22 66
         " stroke-width="3" stroke="#765641" fill="#B8D1E6"/>

    <path d="M 117 151 L 148 93 L 47 5 L 17 48 L 26 55 L 75 38 L 68 101 L 117 151
         " stroke-width="3" stroke="#765641" fill="#D87254"/>
    <path d="M 24 55 L 42 112 L 68 101 L 75 38 L 24 55
         " stroke-width="3" stroke="#765641" fill="#DA5E53"/>
    <line x1="148" y1="93" x2="180" y2="121" stroke-width="3" stroke="#765641"/>
    <line x1="24" y1="55" x2="4" y2="79" stroke-width="3" stroke="#765641"/>

    <path d="M 90 70 L 98 75 L 83 81 L 75 74 L 90 70
         " stroke-width="3" stroke="#765641" fill="#D87254"/>
    <path d="M 83 96 L 83 81 L 98 75 L 83 96
         " stroke-width="3" stroke="#765641" fill="#B8D1E6"/>
    <path d="M 83 81 L 75 74 L 75 90 L 83 96 L 83 81
         " stroke-width="3" stroke="#765641" fill="#B8D1E6"/>

    <path d="M 108 86 L 93 91 L 101 98 L 117 93 L 108 86
         " stroke-width="3" stroke="#765641" fill="#D87254"/>
    <path d="M 117 93 L 101 98 L 101 112 L 117 93
         " stroke-width="3" stroke="#765641" fill="#B8D1E6"/>
    <path d="M 93 91 L 101 98 L 101 112 L 93 105 L 93 91
         " stroke-width="3" stroke="#765641" fill="#B8D1E6"/>

    <path d="M 127 100 L 113 110 L 120 116 L 134 104 L 127 100
         " stroke-width="3" stroke="#765641" fill="#D87254"/>
    <path d="M 120 116 L 134 104 L 120 130 L 120 116
         " stroke-width="3" stroke="#765641" fill="#B8D1E6"/>
    <path d="M 113 110 L 120 116 L 120 130 L 113 123 L 113 110
         " stroke-width="3" stroke="#765641" fill="#B8D1E6"/>

    <path d="M 41 65 L 49 62 L 55 81 L 47 83 L 41 65
         " stroke-width="3" stroke="#765641" fill="#B8D1E6"/>

    <path d="M 46 23 L 61 36 L 49 43 L 31 29 L 46 23
         " stroke-width="3" stroke="#765641" fill="#D87254"/>
    <path d="M 31 29 L 31 43 L 40 50 L 46 47 L 49 43 L 31 29
         " stroke-width="3" stroke="#765641" fill="#B8D1E6"/>

</svg>