<svg xmlns="http://www.w3.org/2000/svg"
     width="210.000000pt" height="200.000000pt" viewBox="0 0 210.000000 200.000000"
     preserveAspectRatio="xMidYMid meet">

    <path d="M 44 50 L 5 76 L 22 93 L 63 66 L 44 50
         " stroke-width="3" stroke="#765641" fill="#D87254"/>
    <path d="M 7 103 L 23 120 L 35 115 L 35 91 L 7 103
         " stroke-width="3" stroke="#765641" fill="#B97A54"/>
    <line x1="7" y1="104" x2="7" y2="78" stroke-width="3" stroke="#765641"/>
    <line x1="23" y1="93" x2="23" y2="119" stroke-width="3" stroke="#765641"/>

    <path d="M 160 147 L 160 178 L 107 126 L 107 86 L 160 147
         " stroke-width="3" stroke="#765641" fill="#EAD7AF"/>
    <path d="M 200 158 L 199 118 L 173 93 L 145 148 L 145 152 L 147 152 L 150 147 L 155 145 L 160 147 L 160 178 L 200 158
         " stroke-width="3" stroke="#765641" fill="#EAD7AF"/>
    <path d="M 107 126 L 107 86 L 63 107 L 63 147 L 107 126
         " stroke-width="3" stroke="#765641" fill="#EAD7AF"/>
    <path d="M 63 107 L 63 147 L 34 116 L 34 76 L 49 55 L 63 107
         " stroke-width="3" stroke="#765641" fill="#EAD7AF"/>

    <path d="M 160 178 L 146 185 L 93 132 L 107 126 L 160 178
         " stroke-width="3" stroke="#765641" fill="#B97A54"/>

    <path d="M 145 185 L 147 185 L 147 152 L 145 152 L 145 185
         " stroke-width="3" stroke="#765641" fill="#EAD7AF"/>
    <path d="M 123 162 L 125 164 L 125 130 L 123 130 L 123 162
         " stroke-width="3" stroke="#765641" fill="#EAD7AF"/>
    <path d="M 107 145 L 109 148 L 109 116 L 107 116 L 107 145
         " stroke-width="3" stroke="#765641" fill="#EAD7AF"/>

    <path d="M 165 138 L 165 156 L 174 153 L 174 136 L 165 138
         " stroke-width="3" stroke="#765641" fill="#B8D1E6"/>
    <path d="M 182 131 L 182 148 L 191 144 L 191 128 L 182 131
         " stroke-width="3" stroke="#765641" fill="#B8D1E6"/>
    <path d="M 167 113 L 167 124 L 171 123 L 171 111 L 167 113
         " stroke-width="3" stroke="#765641" fill="#B8D1E6"/>
    <path d="M 177 108 L 177 121 L 181 119 L 181 106 L 177 108
         " stroke-width="3" stroke="#765641" fill="#B8D1E6"/>
    <path d="M 75 125 L 75 107 L 83 104 L 83 122 L 75 125
         " stroke-width="3" stroke="#765641" fill="#B8D1E6"/>
    <path d="M 40 86 L 40 101 L 44 105 L 44 89 L 40 86
         " stroke-width="3" stroke="#765641" fill="#B8D1E6"/>
    <path d="M 51 99 L 51 113 L 56 118 L 56 102 L 51 99
         " stroke-width="3" stroke="#765641" fill="#B8D1E6"/>
    <path d="M 47 66 L 47 75 L 48 75 L 48 67 L 47 66
         " stroke-width="3" stroke="#765641" fill="#B8D1E6"/>

    <path d="M 142 151 L 173 93 L 73 5 L 42 48 L 51 55 L 100 38 L 93 101 L 142 151
         " stroke-width="3" stroke="#765641" fill="#D87254"/>
    <path d="M 49 55 L 67 112 L 93 101 L 100 38 L 49 55
         " stroke-width="3" stroke="#765641" fill="#DA5E53"/>
    <line x1="173" y1="93" x2="205" y2="121" stroke-width="3" stroke="#765641"/>
    <line x1="49" y1="55" x2="29" y2="79" stroke-width="3" stroke="#765641"/>


    <path d="M 115 70 L 123 75 L 108 81 L 100 74 L 115 70
         " stroke-width="3" stroke="#765641" fill="#D87254"/>
    <path d="M 108 96 L 108 81 L 123 75 L 108 96
         " stroke-width="3" stroke="#765641" fill="#B8D1E6"/>
    <path d="M 108 81 L 100 74 L 100 90 L 108 96 L 108 81
         " stroke-width="3" stroke="#765641" fill="#B8D1E6"/>

    <path d="M 133 86 L 118 91 L 126 98 L 142 93 L 133 86
         " stroke-width="3" stroke="#765641" fill="#D87254"/>
    <path d="M 142 93 L 126 98 L 126 112 L 142 93
         " stroke-width="3" stroke="#765641" fill="#B8D1E6"/>
    <path d="M 118 91 L 126 98 L 126 112 L 118 105 L 118 91
         " stroke-width="3" stroke="#765641" fill="#B8D1E6"/>

    <path d="M 152 100 L 138 110 L 145 116 L 159 104 L 152 100
         " stroke-width="3" stroke="#765641" fill="#D87254"/>
    <path d="M 145 116 L 159 104 L 145 130 L 145 116
         " stroke-width="3" stroke="#765641" fill="#B8D1E6"/>
    <path d="M 138 110 L 145 116 L 145 130 L 138 123 L 138 110
         " stroke-width="3" stroke="#765641" fill="#B8D1E6"/>

    <path d="M 66 65 L 74 62 L 80 81 L 72 83 L 66 65
         " stroke-width="3" stroke="#765641" fill="#B8D1E6"/>

    <path d="M 71 23 L 86 36 L 74 43 L 56 29 L 71 23
         " stroke-width="3" stroke="#765641" fill="#D87254"/>
    <path d="M 56 29 L 56 43 L 65 50 L 71 47 L 74 43 L 56 29
         " stroke-width="3" stroke="#765641" fill="#B8D1E6"/>

</svg>