<svg xmlns="http://www.w3.org/2000/svg"
     width="230.000000pt" height="150.000000pt" viewBox="0 0 230.000000 150.000000"
     preserveAspectRatio="xMidYMid meet">

    <path d="M 118 115 L 118 86 L 107 86 L 107 109 L 118 115
         " stroke-width="3" stroke="#765641" fill="#EAD7AF"/>
    <path d="M 107 86 L 107 109 L 91 115 L 91 93 L 107 86
         " stroke-width="3" stroke="#765641" fill="#EAD7AF"/>
    <path d="M 118 115 L 107 109 L 91 115 L 91 125 L 118 115
         " stroke-width="3" stroke="#765641" fill="#B97A54"/>

    <path d="M 105 99 L 105 89 L 89 89 L 89 104 L 105 99
         " stroke-width="3" stroke="#765641" fill="#B8D1E6"/>
    <path d="M 116 113 L 116 89 L 110 88 L 110 109 L 116 113
         " stroke-width="3" stroke="#765641" fill="#E0E0E0"/>

    <path d="M 220 119 L 220 76 L 189 46 L 160 100 L 160 141 L 220 119
         " stroke-width="3" stroke="#765641" fill="#EAD7AF"/>
    <path d="M 160 100 L 160 141 L 118 115 L 118 83 L 160 100
         " stroke-width="3" stroke="#765641" fill="#EAD7AF"/>
    <path d="M 118 86 L 126 61 L 107 55 L 113 54 L 100 46 L 92 59 L 100 66 L 85 66 L 85 127 L 92 125 L 92 94 L 118 86
         " stroke-width="3" stroke="#765641" fill="#EAD7AF"/>
    <path d="M 85 127 L 85 66 L 67 26 L 50 42 L 50 102 L 85 127
         " stroke-width="3" stroke="#765641" fill="#EAD7AF"/>


    <path d="M 122 117 L 122 93 L 155 110 L 155 138 L 122 117
         " stroke-width="3" stroke="#765641" fill="#E0E0E0"/>
    <path d="M 174 105 L 174 122 L 183 119 L 183 103 174 105
         " stroke-width="3" stroke="#765641" fill="#B8D1E6"/>
    <path d="M 197 97 L 197 113 L 205 110 L 205 95 L 197 97
         " stroke-width="3" stroke="#765641" fill="#B8D1E6"/>
    <ellipse cx="190" cy="77" rx="3" ry="5" stroke-width="3" stroke="#765641" fill="#B8D1E6"/>
    <line x1="177" y1="69" x2="203" y2="61" stroke-width="3" stroke="#765641"/>
    <path d="M 69 115 L 69 85 L 62 81 L 62 109 L 69 115
         " stroke-width="3" stroke="#765641" fill="#E0E0E0"/>
    <path d="M 54 79 L 54 93 L 58 96 L 58 83 L 54 79
         " stroke-width="3" stroke="#765641" fill="#B8D1E6"/>
    <path d="M 74 91 L 74 106 L 80 110 L 80 96 L 74 91
         " stroke-width="3" stroke="#765641" fill="#B8D1E6"/>
    <path d="M 78 76 L 78 53 L 72 50 L 72 73 L 78 76
         " stroke-width="3" stroke="#765641" fill="#B8D1E6"/>
    <path d="M 56 38 L 56 62 L 61 64 L 61 40 L 56 38
         " stroke-width="3" stroke="#765641" fill="#B8D1E6"/>
    <path d="M 65 42 L 65 54 L 69 57 L 69 45 L 65 42
         " stroke-width="3" stroke="#765641" fill="#B8D1E6"/>
    <path d="M 107 55 L 107 71 L 99 74 L 99 58 L 107 55
         " stroke-width="3" stroke="#765641" fill="#B8D1E6"/>

    <line x1="59" y1="32" x2="72" y2="37" stroke-width="3" stroke="#765641"/>

    <path d="M 50 102 L 24 110 L 24 76 L 50 67 L 50 102
         " stroke-width="3" stroke="#765641" fill="#B8D1E6"/>
    <path d="M 24 110 L 24 76 L 4 56 L 4 89 L 24 110
         " stroke-width="3" stroke="#765641" fill="#B8D1E6"/>
    <path d="M 50 67 L 24 76 L 4 56 L 38 44 L 50 52 L 50 67
         " stroke-width="3" stroke="#765641" fill="#B8D1E6"/>
    <line x1="37" y1="72" x2="37" y2="106" stroke-width="3" stroke="#765641"/>
    <line x1="18" y1="70" x2="18" y2="104" stroke-width="3" stroke="#765641"/>
    <line x1="10" y1="62" x2="10" y2="94" stroke-width="3" stroke="#765641"/>


    <path d="M 156 106 L 190 46 L 125 21 L 125 62 L 115 83 L 156 106
         " stroke-width="3" stroke="#765641" fill="#7F7F7F"/>
    <path d="M 125 62 L 125 21 L 110 16 L 67 25 L 90 74 L 102 70 L 98 60 L 93 60 L 93 41 L 114 54 L 108 56 L 116 66 L 125 62
         " stroke-width="3" stroke="#765641" fill="#7F7F7F"/>
    <line x1="190" y1="46" x2="224" y2="80" stroke-width="3" stroke="#765641"/>
    <path d="M 110 16 L 79 4 L 38 44 L 50 52 L 50 41 L 67 25 L 110 16
         " stroke-width="3" stroke="#765641" fill="#7F7F7F"/>
    <line x1="67" y1="25" x2="46" y2="44" stroke-width="3" stroke="#765641"/>

    <path d="M 133 80 L 133 65 L 145 69 L 145 85 L 133 80
         " stroke-width="3" stroke="#765641" fill="#B8D1E6"/>
    <path d="M 146 85 L 146 69 L 157 65 L 146 85
         " stroke-width="3" stroke="#765641" fill="#EAD7AF"/>
    <path d="M 131 64 L 146 69 L 138 58 L 131 64
         " stroke-width="3" stroke="#765641" fill="#EAD7AF"/>
    <path d="M 138 58 L 152 52 L 159 65 L 146 69
         " stroke-width="3" stroke="#765641" fill="#7F7F7F"/>

    <path d="M 92 59 L 92 41 L 100 46 L 92 59
         " stroke-width="3" stroke="#765641" fill="#7F7F7F"/>

    <path d="M 54 61 L 45 64 L 71 81 L 81 78 L 54 61
         " stroke-width="3" stroke="#765641" fill="#B97A54"/>
    <line x1="45" y1="64" x2="45" y2="53" stroke-width="3" stroke="#765641"/>
    <line x1="71" y1="81" x2="71" y2="68" stroke-width="3" stroke="#765641"/>
    <line x1="45" y1="53" x2="71" y2="68" stroke-width="3" stroke="#765641"/>
    <line x1="81" y1="66" x2="71" y2="68" stroke-width="3" stroke="#765641"/>
    <line x1="45" y1="53" x2="55" y2="50" stroke-width="3" stroke="#765641"/>

</svg>