<svg xmlns="http://www.w3.org/2000/svg"
     width="220.000000pt" height="140.000000pt" viewBox="0 0 220.000000 140.000000"
     preserveAspectRatio="xMidYMid meet">

    <path d="M 173 99 L 173 59 L 110 88 L 110 130 L 173 99" stroke-width="3" stroke="#765641" fill="#EAD7AF"/>
    <path d="M 110 88 L 110 130 L 71 105 L 71 67 L 110 88" stroke-width="3" stroke="#765641" fill="#EAD7AF"/>
    <path d="M 71 105 L 71 67 L 54 71 L 54 113 L 71 105" stroke-width="3" stroke="#765641" fill="#EAD7AF"/>
    <path d="M 54 71 L 54 113 L 15 89 L 15 50 L 39 34 L 54 71" stroke-width="3" stroke="#765641" fill="#EAD7AF"/>
    <path d="M 15 70 L 13 68 L 13 33 L 28 42 L 15 50 L 15 70" stroke-width="3" stroke="#765641" fill="#EAD7AF"/>

    <path d="M 176 57 L 123 42 L 115 90 L 176 57" stroke-width="3" stroke="#765641" fill="#DA5E53"/>
    <path d="M 176 57 L 123 42 L 55 10 L 75 12 L 176 57" stroke-width="3" stroke="#765641" fill="#DA5E53"/>
    <path d="M 123 42 L 115 90 L 71 67 L 9 32 L 55 10 L 123 42" stroke-width="3" stroke="#765641" fill="#D87254"/>
    <path d="M 71 67 L 54 72 L 39 33 L 67 25 L 71 67" stroke-width="3" stroke="#765641" fill="#D87254"/>

    <path d="M 54 71 L 54 113 L 15 89 L 15 50 L 39 34 L 54 71" stroke-width="3" stroke="#765641" fill="#EAD7AF"/>

    <path d="M 167 69 L 167 86 L 158 91 L 158 75 L 167 69" stroke-width="3" stroke="#765641" fill="#B8D1E6"/>
    <path d="M 153 76 L 153 100 L 141 106 L 141 82 L 153 76" stroke-width="3" stroke="#765641" fill="#B8D1E6"/>
    <path d="M 130 89 L 130 103 L 121 108 L 121 95 L 130 89" stroke-width="3" stroke="#765641" fill="#B8D1E6"/>
    <path d="M 22 92 L 22 62 L 46 77 L 46 109 L 22 92" stroke-width="3" stroke="#765641" fill="#B8D1E6"/>
    <path d="M 25 53 L 44 63 L 36 43 L 25 53" stroke-width="3" stroke="#765641" fill="#B8D1E6"/>

    <path d="M 167 118 L 167 105 L 145 117 L 133 136 L 167 118" stroke-width="3" stroke="#765641" fill="#EAD7AF"/>
    <path d="M 167 105 L 145 117 L 134 110 L 156 98 L 167 105" stroke-width="3" stroke="#765641" fill="#B97A54"/>
    <path d="M 145 117 L 134 110 L 120 127 L 133 136 L 145 117" stroke-width="3" stroke="#765641" fill="#B97A54"/>


</svg>