<svg xmlns="http://www.w3.org/2000/svg"
     width="183.000000pt" height="119.000000pt" viewBox="0 0 183.000000 119.000000"
     preserveAspectRatio="xMidYMid meet">


    <path d="M 20 45 L 20 77 L 110 99 L 110 62 L 20 45" stroke-width="3" stroke="#765641" fill="#EAD7AF"/>
    <path d="M 110 62 L 110 99 L 177 55 L 177 32 L 110 62" stroke-width="3" stroke="#765641" fill="#EAD7AF"/>

    <path d="M 29 53 L 29 67 L 43 69 L 43 56 L 29 53" stroke-width="3" stroke="#765641" fill="#B8D1E6"/>
    <path d="M 81 63 L 81 79 L 87 80 L 87 65 L 81 63" stroke-width="3" stroke="#765641" fill="#B8D1E6"/>
    <path d="M 94 66 L 94 82 L 102 84 L 102 68 L 94 66" stroke-width="3" stroke="#765641" fill="#B8D1E6"/>
    <path d="M 120 63 L 120 79 L 126 75 L 126 62" stroke-width="3" stroke="#765641" fill="#B8D1E6"/>
    <path d="M 132 59 L 132 71 L 138 69 L 138 56" stroke-width="3" stroke="#765641" fill="#B8D1E6"/>
    <path d="M 152 47 L 152 58 L 158 55 L 158 45" stroke-width="3" stroke="#765641" fill="#B8D1E6"/>

    <path d="M 55 85 L 55 59 L 71 62 L 71 89" stroke-width="3" stroke="#765641" fill="#B8D1E6"/>
    <line x1="59" y1="60" x2="59" y2="86" stroke-width="3" stroke="#765641" />
    <line x1="67" y1="62" x2="67" y2="88" stroke-width="3" stroke="#765641" />
    <line x1="59" y1="65" x2="67" y2="67" stroke-width="3" stroke="#765641" />
    <line x1="59" y1="72" x2="67" y2="74" stroke-width="3" stroke="#765641" />
    <line x1="59" y1="79" x2="67" y2="81" stroke-width="3" stroke="#765641" />

    <path d="M 11 44 L 124 64 L 104 16 L 11 44" stroke-width="3" stroke="#765641" fill="#DA5E53"/>
    <path d="M 104 16 L 124 64 L 183 30 L 125 6 L 104 16" stroke-width="3" stroke="#765641" fill="#D87254"/>
    <path d="M 11 44 L 104 16 L 125 6 L 81 17 L 11 44" stroke-width="3" stroke="#765641" fill="#D87254"/>


    <path d="M 136 79 L 136 113 L 158 119 L 158 84 L 136 79" stroke-width="3" stroke="#765641" fill="#C3C3C3"/>
    <path d="M 158 84 L 158 119 L 175 104 L 175 74 L 166 70 L 158 84" stroke-width="3" stroke="#765641" fill="#C3C3C3"/>
    <line x1="166" y1="69" x2="178" y2="75" stroke-width="3" stroke="#765641" />
    <path d="M 133 80 L 160 86 L 166 69 L 142 63 L 133 80" stroke-width="3" stroke="#765641" fill="#DA5E53"/>

</svg>
