<svg xmlns="http://www.w3.org/2000/svg"
     width="170.000000pt" height="110.000000pt" viewBox="0 0 170.000000 110.000000"
     preserveAspectRatio="xMidYMid meet">


    <path d="M 154 57 L 154 89 L 90 107 L 90 75 L 154 57
         " stroke-width="3" stroke="#765641" fill="#EAD7AF"/>
    <path d="M 90 107 L 90 75 L 60 49 L 60 74 L 90 107
         " stroke-width="3" stroke="#765641" fill="#EAD7AF"/>
    <path d="M 60 49 L 60 74 L 46 77 L 46 46 L 60 51
         " stroke-width="3" stroke="#765641" fill="#EAD7AF"/>
    <path d="M 46 77 L 46 46 L 23 20 L 23 50 L 46 77
         " stroke-width="3" stroke="#765641" fill="#EAD7AF"/>


    <path d="M 149 65 L 149 85 L 143 87 L 143 67 L 149 65
         " stroke-width="3" stroke="#765641" fill="#B8D1E6"/>
    <path d="M 137 69 L 137 89 L 130 90 L 130 70 L 137 69
         " stroke-width="3" stroke="#765641" fill="#B8D1E6"/>
    <path d="M 103 78 L 103 96 L 97 98 L 97 79 L 103 78
         " stroke-width="3" stroke="#765641" fill="#B8D1E6"/>
    <path d="M 68 62 L 68 75 L 64 73 L 64 58 L 68 62
         " stroke-width="3" stroke="#765641" fill="#B8D1E6"/>
    <path d="M 42 41 L 42 63 L 37 58 L 37 36 L 42 41
         " stroke-width="3" stroke="#765641" fill="#B8D1E6"/>
    <path d="M 32 31 L 32 51 L 27 46 L 27 25 L 32 31
         " stroke-width="3" stroke="#765641" fill="#B8D1E6"/>

    <path d="M 86 103 L 86 81 L 72 69 L 72 88 L 86 103
         " stroke-width="3" stroke="#765641" fill="#B8D1E6"/>

    <path d="M 165 56 L 83 77 L 115 31 L 165 56
         " stroke-width="3" stroke="#765641" fill="#D87254"/>
    <path d="M 83 77 L 115 31 L 90 15 L 60 53 L 83 77
         " stroke-width="3" stroke="#765641" fill="#DA5E53"/>
    <path d="M 60 53 L 86 18 L 76 9 L 51 52 L 60 53
         " stroke-width="3" stroke="#765641" fill="#D87254"/>
    <path d="M 76 9 L 51 52 L 19 16 L 76 9
         " stroke-width="3" stroke="#765641" fill="#DA5E53"/>

    <!--
    <path d="M 79 62 L 79 89 L 61 93 L 61 62 L 79 62
         " stroke-width="3" stroke="#765641" fill="#EAD7AF"/>
    <path d="M 61 93 L 61 62 L 23 17 L 23 46 L 61 93
         " stroke-width="3" stroke="#765641" fill="#EAD7AF"/>

    <path d="M 194 109 L 158 84 L 134 124 L 194 109
         " stroke-width="3" stroke="#765641" fill="#7F7F7F"/>
    <path d="M 158 84 L 134 124 L 79 62 L 90 4 L 158 84
         " stroke-width="3" stroke="#765641" fill="#7F7F7F"/>
    <path d="M 79 62 L 90 4 L 76 6 L 63 64 L 79 62
         " stroke-width="3" stroke="#765641" fill="#7F7F7F"/>
    <path d="M 76 6 L 63 64 L 22 15 L 76 6
         " stroke-width="3" stroke="#765641" fill="#7F7F7F"/>
    <path d="M 194 109 L 158 84 L 90 4 L 97 6 L 194 109
         " stroke-width="3" stroke="#765641" fill="#7F7F7F"/>

    <path d="M 174 133 L 174 120 L 184 117 L 184 131 L 174 133
         " stroke-width="3" stroke="#765641" fill="#B8D1E6"/>
    <path d="M 130 125 L 130 136 L 125 131 L 125 121 L 130 125
         " stroke-width="3" stroke="#765641" fill="#B8D1E6"/>
    <path d="M 122 116 L 122 126 L 117 121 L 117 111 L 122 115
         " stroke-width="3" stroke="#765641" fill="#B8D1E6"/>
    <path d="M 111 103 L 111 114 L 106 109 L 106 98 L 111 102
         " stroke-width="3" stroke="#765641" fill="#B8D1E6"/>
    <path d="M 103 93 L 103 104 L 98 99 L 98 89 L 103 92
         " stroke-width="3" stroke="#765641" fill="#B8D1E6"/>

    <path d="M 66 92 L 66 71 L 75 68 L 75 90 L 66 92
         " stroke-width="3" stroke="#765641" fill="#B8D1E6"/>
    <path d="M 56 87 L 56 64 L 49 56 L 49 77 L 56 87
         " stroke-width="3" stroke="#765641" fill="#B8D1E6"/>
    <path d="M 36 62 L 36 39 L 28 31 L 28 52 L 36 62
         " stroke-width="3" stroke="#765641" fill="#B8D1E6"/>

    <path d="M 89 101 L 89 80 L 83 75 L 83 94 L 89 101
         " stroke-width="3" stroke="#765641" fill="#B97A57"/>
-->
</svg>