<svg xmlns="http://www.w3.org/2000/svg"
     width="200.000000pt" height="200.000000pt" viewBox="0 0 200.000000 200.000000"
     preserveAspectRatio="xMidYMid meet">

    <path d="M 198 67 L 198 31 L 145 56 L 145 94 L 198 67" stroke-width="3" stroke="#765641" fill="#EAD7AF"/>

    <path d="M 184 60 L 184 42 L 169 49 L 169 66L L 184 60" stroke-width="3" stroke="#765641" fill="#B8D1E6"/>
    <path d="M 153 90 L 153 66 L 144 71 L 144 94 L 153 90" stroke-width="3" stroke="#765641" fill="#7F7F7F"/>
    <path d="M 180 89 L 165 83 L 144 94 L 146 108" stroke-width="3" stroke="#765641" fill="#B97A54"/>

    <path d="M 146 108 L 146 72 L 97 99 L 97 136 L 146 108" stroke-width="3" stroke="#765641" fill="#EAD7AF"/>
    <path d="M 97 99 L 97 136 L 7 87 L 7 59 L 97 99" stroke-width="3" stroke="#765641" fill="#EAD7AF"/>

    <path d="M 180 89 L 180 53 L 175 56 L 175 90 L 180 89" stroke-width="3" stroke="#765641" fill="#EAD7AF"/>
    <path d="M 175 56 L 175 90 L 170 89 L 170 57 L 175 56" stroke-width="3" stroke="#765641" fill="#EAD7AF"/>

    <path d="M 125 84 L 125 106 L 113 113 L 113 90 L 125 84" stroke-width="3" stroke="#765641" fill="#B8D1E6"/>
    <path d="M 53 84 L 53 98 L 47 94 L 47 80 L 53 84" stroke-width="3" stroke="#765641" fill="#B8D1E6"/>
    <path d="M 22 66 L 22 82 L 14 78 L 14 63 L 22 66" stroke-width="3" stroke="#765641" fill="#B8D1E6"/>

    <path d="M 183 52 L 105 36 L 92 103 L 183 52" stroke-width="3" stroke="#765641" fill="#7F7F7F"/>
    <path d="M 105 36 L 92 103 L 0 56 L 71 6 L 95 18 L 91 31 L 105 36" stroke-width="3" stroke="#765641" fill="#7F7F7F"/>
    <path d="M 95 18 L 91 31 L 105 36 L 164 48 L 202 29 L 95 18" stroke-width="3" stroke="#765641" fill="#7F7F7F"/>
    <path d="M 71 6 L 95 18 L 202 29 L 132 6 L 71 6" stroke-width="3" stroke="#765641" fill="#7F7F7F"/>
</svg>