<svg xmlns="http://www.w3.org/2000/svg"
     width="150.000000pt" height="150.000000pt" viewBox="0 0 150.000000 150.000000"
     preserveAspectRatio="xMidYMid meet">

    <path d="M 9 102 L 9 40 L 19 32 L 47 53 L 57 82 L 57 142 L 9 102" stroke-width="3" stroke="#765641" fill="#C3C3C3"/>
    <path d="M 57 82 L 57 142 L 135 95 L 135 53 L 57 82" stroke-width="3" stroke="#765641" fill="#C3C3C3"/>

    <path d="M 84 93 l 6 -2 l 0 30 l -6 3 l 0 -31" stroke-width="3" stroke="#765641" fill="#B8D1E6"/>
    <path d="M 95 87 l 6 -2 l 0 30 l -6 3 l 0 -31" stroke-width="3" stroke="#765641" fill="#B8D1E6"/>
    <path d="M 107 80 l 6 -2 l 0 30 l -6 3 l 0 -31" stroke-width="3" stroke="#765641" fill="#B8D1E6"/>

    <path d="M 61 107 L 61 116 L 70 112 L 70 104 L 61 107" stroke-width="3" stroke="#765641" fill="#B8D1E6"/>
    <path d="M 19 37 l 0 8 l 4 4 l 0 -9 l -4 -3" stroke-width="3" stroke="#765641" fill="#B8D1E6"/>
    <path d="M 23 40 l 0 8 l 4 4 l 0 -9 l -4 -3" stroke-width="3" stroke="#765641" fill="#B8D1E6"/>
    <path d="M 27 43 l 0 8 l 4 4 l 0 -9 l -4 -3" stroke-width="3" stroke="#765641" fill="#B8D1E6"/>
    <path d="M 38 53 L 38 61 L 45 66 L 45 58 L 38 53" stroke-width="3" stroke="#765641" fill="#B8D1E6"/>

    <path d="M 36 124 L 36 96 L 44 102 L 44 131 L 36 124" stroke-width="3" stroke="#765641" fill="#B97A57"/>

    <path d="M 20 31 L 53 21 L 47 53 L 20 31" stroke-width="3" stroke="#765641" fill="#DA5E53"/>
    <path d="M 53 21 L 47 53 L 63 97 L 139 54 L 121 18 L 98 6 L 53 21" stroke-width="3" stroke="#765641" fill="#D87254"/>
    <line x1="20" y1="31" x2="3" y2="46" stroke-width="3" stroke="#765641"/>

    <path d="M 74 56 l 6 -3 l 6 17 l -6 2 l -6 -16" stroke-width="3" stroke="#765641" fill="#B8D1E6"/>
    <path d="M 84 51 l 6 -3 l 6 17 l -6 2 l -6 -16" stroke-width="3" stroke="#765641" fill="#B8D1E6"/>
    <path d="M 95 46 l 6 -3 l 6 17 l -6 2 l -6 -16" stroke-width="3" stroke="#765641" fill="#B8D1E6"/>

</svg>