<svg xmlns="http://www.w3.org/2000/svg"
     width="170.000000pt" height="120.000000pt" viewBox="0 0 170.000000 120.000000"
     preserveAspectRatio="xMidYMid meet">

    <path d="M 22 43 L 22 61 L 33 74 L 33 54 L 22 43" stroke-width="3" stroke="#765641" fill="#EAD7AF"/>
    <path d="M 22 61 L 22 70 L 33 84 L 33 74 L 22 61" stroke-width="3" stroke="#765641" fill="#C3C3C3"/>
    <path d="M 33 54 L 33 74 L 49 80 L 49 58 L 33 54" stroke-width="3" stroke="#765641" fill="#EAD7AF"/>
    <path d="M 33 74 L 33 84 L 49 89 L 49 80 L 33 74" stroke-width="3" stroke="#765641" fill="#C3C3C3"/>
    <path d="M 49 46 L 49 80 L 66 77 L 66 44 L 49 46" stroke-width="3" stroke="#765641" fill="#EAD7AF"/>
    <path d="M 49 80 L 49 89 L 66 85 L 66 77 L 49 80" stroke-width="3" stroke="#765641" fill="#C3C3C3"/>
    <path d="M 66 44 L 66 77 L 92 105 L 92 71 L 66 44" stroke-width="3" stroke="#765641" fill="#EAD7AF"/>
    <path d="M 66 77 L 66 85 L 92 115 L 92 105 L 66 77" stroke-width="3" stroke="#765641" fill="#C3C3C3"/>
    <path d="M 92 71 L 92 105 L 164 90 L 164 55 L 135 40 L 117 43 L 92 71" stroke-width="3" stroke="#765641"
          fill="#EAD7AF"/>
    <path d="M 92 105 L 92 115 L 164 99 L 164 90 L 92 105" stroke-width="3" stroke="#765641" fill="#C3C3C3"/>

    <path d="M 34 31 L 34 39 L 49 58 L 49 38 L 34 31" stroke-width="3" stroke="#765641" fill="#EAD7AF"/>

    <path d="M 34 39 L 22 43 L 33 54 L 49 58 L 34 39" stroke-width="3" stroke="#765641" fill="#B97A54"/>
    <line x1="22" y1="43" x2="22" y2="26" stroke-width="3" stroke="#765641"/>
    <line x1="33" y1="54" x2="33" y2="35" stroke-width="3" stroke="#765641"/>

    <path d="M 53 80 L 66 78 L 76 87 L 76 93 L 80 97 L 81 102 L 66 107 L 66 102 L 61 97 L 61 92 L 53 80"
          stroke-width="3" stroke="#765641" fill="#B97A54"/>
    <line x1="76" y1="87" x2="61" y2="92" stroke-width="3" stroke="#765641"/>
    <line x1="76" y1="93" x2="61" y2="97" stroke-width="3" stroke="#765641"/>
    <line x1="80" y1="97" x2="66" y2="102" stroke-width="3" stroke="#765641"/>
    <path d="M 53 80 L 53 88 L 61 98 L 61 92 L 53 80" stroke-width="3" stroke="#765641" fill="#C3C3C3"/>
    <line x1="61" y1="98" x2="66" y2="107" stroke-width="3" stroke="#765641"/>

    <path d="M 112 81 L 112 93 L 123 90 L 123 79 L 112 81" stroke-width="3" stroke="#765641" fill="#B8D1E6"/>
    <path d="M 131 76 L 131 88 L 143 86 L 143 73 L 131 76" stroke-width="3" stroke="#765641" fill="#B8D1E6"/>
    <path d="M 113 53 L 113 64 L 123 63 L 123 52 L 113 53" stroke-width="3" stroke="#765641" fill="#B8D1E6"/>
    <path d="M 130 50 L 130 62 L 139 60 L 139 49 L 130 50" stroke-width="3" stroke="#765641" fill="#B8D1E6"/>
    <path d="M 80 72 L 80 82 L 87 89 L 87 80 L 80 72" stroke-width="3" stroke="#765641" fill="#B8D1E6"/>
    <path d="M 37 62 L 37 71 L 44 73 L 44 63 L 37 62" stroke-width="3" stroke="#765641" fill="#B8D1E6"/>
    <path d="M 26 53 L 26 59 L 30 64 L 30 57 L 26 53" stroke-width="3" stroke="#765641" fill="#B8D1E6"/>

    <path d="M 53 79 L 53 61 L 62 58 L 62 78" stroke-width="3" stroke="#765641" fill="#E0E0E0"/>
    <path d="M 70 79 L 70 62 L 74 64 L 74 85" stroke-width="3" stroke="#765641" fill="#E0E0E0"/>

    <path d="M 22 26 L 35 35 L 41 19 L 22 26" stroke-width="3" stroke="#765641" fill="#7F7F7F"/>
    <path d="M 35 35 L 41 19 L 47 37 L 35 35" stroke-width="3" stroke="#765641" fill="#7F7F7F"/>
    <path d="M 41 19 L 49 47 L 66 44 L 98 8 L 41 19" stroke-width="3" stroke="#765641" fill="#7F7F7F"/>
    <path d="M 66 44 L 98 8 L 121 27 L 117 44 L 90 73 L 66 44" stroke-width="3" stroke="#765641" fill="#7F7F7F"/>
    <path d="M 121 27 L 117 44 L 136 41 L 121 27" stroke-width="3" stroke="#765641" fill="#7F7F7F"/>
    <path d="M 136 41 L 166 56 L 133 31 L 98 8 L 136 41" stroke-width="3" stroke="#765641" fill="#7F7F7F"/>

</svg>