<svg xmlns="http://www.w3.org/2000/svg"
     width="248.000000pt" height="150.000000pt" viewBox="0 0 248.000000 150.000000"
     preserveAspectRatio="xMidYMid meet">

<path d="M 19 37 L 19 66 L 60 121 L 60 89 L 19 37" stroke-width="3" stroke="#765641" fill="#EAD7AF"/>
<path d="M 60 121 L 60 89 L 89 83 L 89 115 L 60 121" stroke-width="3" stroke="#765641" fill="#EAD7AF"/>
<path d="M 89 83 L 89 115 L 118 139 L 118 106 L 89 83" stroke-width="3" stroke="#765641" fill="#EAD7AF"/>
<path d="M 118 106 L 118 139 L 177 123 L 177 93 L 118 106" stroke-width="3" stroke="#765641" fill="#EAD7AF"/>

<path d="M 133 134 L 133 112 L 164 105 L 164 126" stroke-width="3" stroke="#765641" fill="#E0E0E0"/>
<path d="M 95 98 L 95 110 L 104 118 L 104 107 L 95 98" stroke-width="3" stroke="#765641" fill="#B8D1E6"/>
<path d="M 70 95 L 70 108 L 83 105 L 83 92 L 70 95" stroke-width="3" stroke="#765641" fill="#B8D1E6"/>
<path d="M 30 60 L 30 67 L 34 72 L 34 66 L 30 60" stroke-width="3" stroke="#765641" fill="#B8D1E6"/>
<path d="M 42 77 L 42 83 L 46 88 L 46 82 L 42 77" stroke-width="3" stroke="#765641" fill="#B8D1E6"/>


<path d="M 114 109 L 183 92 L 140 72 L 114 109" stroke-width="3" stroke="#765641" fill="#D87254"/>
<path d="M 114 109 L 140 72 L 120 56 L 90 85 L 114 109" stroke-width="3" stroke="#765641" fill="#DA5E53"/>
<path d="M 57 92 L 90 85 L 122 53 L 102 41 L 57 92" stroke-width="3" stroke="#765641" fill="#D87254"/>
<path d="M 57 92 L 102 41 L 79 17 L 17 34 L 57 92" stroke-width="3" stroke="#765641" fill="#DA5E53"/>
<path d="M 140 72 L 183 92 L 144 67 L 122 53 L 120 56 L 140 72" stroke-width="3" stroke="#765641" fill="#DA5E53"/>

<line x1="189" y1="102" x2="189" y2="128" stroke-width="3" stroke="#765641" />
<line x1="212" y1="123" x2="212" y2="150" stroke-width="3" stroke="#765641" />
<line x1="244" y1="114" x2="244" y2="141" stroke-width="3" stroke="#765641" />

<path d="M 186 100 L 215 127 L 231 111 L 201 87 L 186 100" stroke-width="3" stroke="#765641" fill="#DA5E53"/>
<path d="M 231 111 L 248 117 L 219 96 L 201 87 L 231 111" stroke-width="3" stroke="#765641" fill="#DA5E53"/>

</svg>