<svg xmlns="http://www.w3.org/2000/svg"
     width="200.000000pt" height="200.000000pt" viewBox="0 0 200.000000 200.000000"
     preserveAspectRatio="xMidYMid meet">

    <path d="M 32 160 L 32 127 L 87 142 L 87 175 L 32 160
         " stroke-width="3" stroke="#765641" fill="#EAD7AF"/>
    <path d="M 32 127 L 59 107 L 87 142 L 32 127
         " stroke-width="3" stroke="#765641" fill="#7F7F7F"/>
    <path d="M 87 142 L 87 175 L 173 63 L 173 36 L 87 142
         " stroke-width="3" stroke="#765641" fill="#EAD7AF"/>

    <path d="M 80 173 L 80 148 L 63 143 L 63 168 L 80 173
         " stroke-width="3" stroke="#765641" fill="#B8D1E6"/>
    <path d="M 91 168 L 91 149 L 100 138 L 100 156 L 91 168
         " stroke-width="3" stroke="#765641" fill="#B8D1E6"/>
    <path d="M 105 151 L 105 132 L 109 126 L 109 146 L 105 151
         " stroke-width="3" stroke="#765641" fill="#B8D1E6"/>
    <path d="M 114 140 L 114 121 L 118 114 L 118 132 L 114 140
         " stroke-width="3" stroke="#765641" fill="#B8D1E6"/>
    <path d="M 123 126 L 123 107 L 127 101 L 127 121 L 123 126
         " stroke-width="3" stroke="#765641" fill="#B8D1E6"/>
    <path d="M 132 116 L 132 95 L 138 86 L 138 107 L 132 116
         " stroke-width="3" stroke="#765641" fill="#B8D1E6"/>
    <path d="M 143 99 L 143 81 L 147 75 L 147 95 L 143 99
         " stroke-width="3" stroke="#765641" fill="#B8D1E6"/>
    <path d="M 151 90 L 151 70 L 155 64 L 155 84 L 151 90
         " stroke-width="3" stroke="#765641" fill="#B8D1E6"/>
    <path d="M 162 74 L 162 54 L 168 47 L 168 66 L 162 74
         " stroke-width="3" stroke="#765641" fill="#B8D1E6"/>

    <path d="M 60 107 L 90 145 L 175 33 L 145 2 L 60 107
         " stroke-width="3" stroke="#765641" fill="#7F7F7F"/>
    <path d="M 145 2 L 60 107 L 29 130 L 120 27 L 145 2
         " stroke-width="3" stroke="#765641" fill="#7F7F7F"/>

    <path d="M 91 132 L 91 115 L 166 21 L 166 34 L 91 132
         " stroke-width="3" stroke="#765641" fill="#EAD7AF"/>
    <path d="M 73 112 L 90 115 L 167 22 L 150 15 L 73 112
         " stroke-width="3" stroke="#765641" fill="#7F7F7F"/>
    <path d="M 73 112 L 90 115 L 91 132 L 73 112
         " stroke-width="3" stroke="#765641" fill="#7F7F7F"/>

    <path d="M 94 114 L 94 124 L 102 116 L 102 106 L 94 114
         " stroke-width="3" stroke="#765641" fill="#B8D1E6"/>
    <path d="M 107 98 L 107 107 L 115 97 L 115 88 L 107 98
         " stroke-width="3" stroke="#765641" fill="#B8D1E6"/>
    <path d="M 123 78 L 123 86 L 133 75 L 133 67 L 123 78
         " stroke-width="3" stroke="#765641" fill="#B8D1E6"/>
    <path d="M 139 58 L 139 65 L 146 56 L 146 48 L 139 58
         " stroke-width="3" stroke="#765641" fill="#B8D1E6"/>
    <path d="M 153 39 L 153 47 L 162 37 L 162 28 L 153 39
         " stroke-width="3" stroke="#765641" fill="#B8D1E6"/>

</svg>