<svg xmlns="http://www.w3.org/2000/svg"
     width="240.000000pt" height="180.000000pt" viewBox="0 0 240.000000 180.000000"
     preserveAspectRatio="xMidYMid meet">

    <path d="M 51 109 L 51 139 L 110 168 L 110 137 L 51 109
         " stroke-width="3" stroke="#765641" fill="#EAD7AF"/>
    <path d="M 110 168 L 110 137 L 220 40 L 220 65 L 110 168
         " stroke-width="3" stroke="#765641" fill="#EAD7AF"/>
    <path d="M 51 109 L 110 137 L 85 90 L 51 109
         " stroke-width="3" stroke="#765641" fill="#7F7F7F"/>

    <path d="M 89 158 L 89 137 L 105 143 L 105 165 L 89 158
         " stroke-width="3" stroke="#765641" fill="#B8D1E6"/>
    <path d="M 120 160 L 120 140 L 129 130 L 129 151 L 120 160
         " stroke-width="3" stroke="#765641" fill="#B8D1E6"/>
    <path d="M 136 144 L 136 123 L 144 116 L 144 136 L 136 144
         " stroke-width="3" stroke="#765641" fill="#B8D1E6"/>
    <path d="M 151 110 L 151 120 L 159 114 L 159 103 L 151 110
         " stroke-width="3" stroke="#765641" fill="#B8D1E6"/>
    <path d="M 172 110 L 172 90 L 179 82 L 179 104 L 172 110
         " stroke-width="3" stroke="#765641" fill="#B8D1E6"/>
    <path d="M 184 100 L 184 79 L 192 70 L 192 91 L 184 100
         " stroke-width="3" stroke="#765641" fill="#B8D1E6"/>
    <path d="M 199 85 L 199 64 L 206 57 L 206 77 L 199 85
         " stroke-width="3" stroke="#765641" fill="#B8D1E6"/>
    <path d="M 210 55 L 210 64 L 215 59 L 215 50 L 210 55
         " stroke-width="3" stroke="#765641" fill="#B8D1E6"/>

    <path d="M 85 89 L 114 145 L 223 41 L 189 6 L 85 89
         " stroke-width="3" stroke="#765641" fill="#7F7F7F"/>
    <path d="M 85 89 L 45 110 L 162 20 L 189 6 L 85 89
         " stroke-width="3" stroke="#765641" fill="#7F7F7F"/>

    <path d="M 215 21 L 215 40 L 114 132 L 114 111 L 215 21
         " stroke-width="3" stroke="#765641" fill="#EAD7AF"/>
    <path d="M 192 17 L 216 20 L 114 112 L 98 99 L 192 17
         " stroke-width="3" stroke="#765641" fill="#7F7F7F"/>
    <path d="M 114 112 L 98 99 L 113 132 L 114 112
         " stroke-width="3" stroke="#765641" fill="#7F7F7F"/>

    <path d="M 137 97 L 137 105 L 121 121 L 121 113 L 137 97
         " stroke-width="3" stroke="#765641" fill="#B8D1E6"/>
    <path d="M 163 74 L 163 81 L 177 69 L 177 63 L 163 74
         " stroke-width="3" stroke="#765641" fill="#B8D1E6"/>
    <path d="M 211 31 L 211 38 L 199 49 L 199 42 L 211 31
         " stroke-width="3" stroke="#765641" fill="#B8D1E6"/>

</svg>