<svg width="100" height="50" xmlns="http://www.w3.org/2000/svg">
 <g>
  <title>Layer 1</title>
  <path d="m37.41661,36.62219c0,0 -1.00006,0 -3.0002,0c-1.00006,0 -2.58595,1.41431 -4.00026,0c-0.70715,-0.70715 -1.00007,-1.00007 -1.00007,-1.00007c-1.00006,-2.00013 -1.29298,-2.29305 -2.00013,-3.0002c-1.41431,-1.41431 -2.15238,0.76543 -4.00027,0c-1.30665,-0.54124 1.00007,-1.00007 2.00014,-1.00007c1.00006,0 2.70728,-0.29291 2.00013,-1.00006c-1.41431,-1.41431 -3.08046,-1.31082 -6.0004,-2.00013c-2.17639,-0.51378 -4.00026,-1.00007 -5.00033,-1.00007c-3.0002,0 -5.00033,-2.00013 -5.00033,0c0,1.00007 2.00013,0 2.00013,0c2.00013,0 4.00026,0 6.0004,0c1.00006,0 2.00013,0 2.00013,0c0,-1.00007 0.70715,-3.29311 0,-4.00027c-1.41431,-1.41431 -2.29305,-0.29291 -3.0002,-1.00006c-0.70715,-0.70715 -1.63882,-0.44301 -4.00026,-2.00014c-4.49605,-2.96468 -7.00046,-2.00013 -9.00059,-2.00013c-1.00007,0 -2.00013,0 -3.0002,0c-1.00007,0 -2.00013,0 -1.00007,0c0,0 2.00013,0 3.0002,0c1.00007,0 3.7705,0.97331 4.00026,0c0.51378,-2.17639 -3.00019,-1.00007 -3.00019,-1.00007c-1.00007,-2.00013 -4.00027,-3.0002 -4.00027,-2.00013c0,2.00013 3.02695,0.22977 4.00027,0c2.17639,-0.51377 3.00019,-1.00006 4.00026,-1.00006c2.00013,0 3.48649,0.17626 4.00026,-2.00014c0.22977,-0.97331 0.30658,-2.45896 -1.00006,-3.0002c-1.84788,-0.76542 -3.0002,0 -5.00033,0c-3.0002,0 -2.00013,-2.00013 -4.00026,-2.00013c-1.00007,0 2.00013,1.00007 3.0002,1.00007c1.00006,0 3.0002,0 3.0002,0c2.00013,0 4.00026,-1.00007 4.00026,-1.00007c0,-1.00007 -1.00006,-1.00007 -1.00006,-2.00013c0,-2.00013 -1.00007,-2.00013 0,-2.00013c1.00006,0 1.00006,1.00006 3.00019,1.00006c2.00013,0 3.23486,1.84789 4.00027,0c0.54123,-1.30665 -1.48636,-0.8238 -2.00013,-3.0002c-0.45953,-1.94662 -0.38271,-1.924 0,-1.00006c1.08247,2.6133 1.29708,3.61407 4.00026,6.00039c1.67644,1.47993 2.58596,2.58596 4.00027,4.00027c0.70715,0.70715 2.29305,0.70715 3.0002,0c0.70715,-0.70715 0,-3.0002 0,-4.00027c0,-2.00013 -0.29292,-2.29304 -1.00007,-3.00019c-0.70715,-0.70715 -1.00007,-1.00007 0,0c0,0 0.09789,1.82455 2.00013,3.00019c1.70141,1.05153 3.29311,1.70722 4.00027,1.00007c0.70715,-0.70715 2.00012,-2.00013 1.00006,-2.00013c-2.00013,0 1.07619,2.61749 2.00014,3.0002c1.30664,0.54123 2.00013,1.00006 3.0002,1.00006c2.00013,0 1.29298,-1.29298 2.00013,-2.00013c1.41431,-1.41431 6.58622,-0.58582 8.00053,-2.00013c0.70715,-0.70715 0.30658,-1.5413 -1.00007,-1.00007c-0.92393,0.38271 -0.61736,-0.92393 -1.00006,0c-1.08247,2.6133 -2.70729,3.29311 -2.00014,4.00027c0.70715,0.70715 2.00014,0 4.00027,0c0,0 4.00027,0 8.00053,-1.00007c0,0 0.30658,1.4589 -1.00007,2.00013c-1.84788,0.76541 -2.29304,1.29298 -3.00019,2.00014c-0.70715,0.70715 0,2.00013 2.00013,2.00013c2.00013,0 4.00026,0 5.00033,0c1.00007,0 3.0002,1.00007 3.0002,0c0,-2.00013 -0.58582,0.58582 -2.00013,2.00013c-1.41431,1.41431 -1.00007,0 1.00006,0c2.00014,0 8.70603,-1.34628 11.00072,-3.0002c1.81412,-1.30754 6.0004,0 6.0004,-2.00013c0,-1.00006 -2.00013,0 -3.0002,1.00007c-2.00013,2.00013 -2.70728,3.29311 -2.00013,4.00026c0.70715,0.70715 1.41431,0.58582 0,2.00013c-0.70715,0.70715 -1.00007,1.00007 -1.00007,2.00014c0,0 -0.17626,0.48629 2.00014,1.00006c0.97331,0.22977 3.0002,1.00007 3.0002,0c0,-1.00007 -2.94873,0.29872 -4.00027,2.00014c-1.17564,1.90224 -4.00027,1.00006 -3.0002,1.00006c1.00007,0 1.00007,1.00007 2.00013,1.00007c3.0002,0 5.00034,1.00007 5.00034,0c0,-1.00007 -1.69355,2.45896 -3.0002,3.0002c-0.92394,0.38271 -1.29298,0.29292 -2.00014,1.00007c-0.70715,0.70715 -3.0002,0 -4.00026,0c-1.00007,0 -3.0002,0 -7.00047,0c-1.00006,0 -4.00026,0 -5.00033,0c0,0 -0.70715,-0.70715 0,0c0.70715,0.70715 0,1.00006 1.00007,1.00006c1.00006,0 0.54123,1.69355 0,3.0002c-0.38271,0.92394 -1.00007,1.00007 -1.00007,1.00007c-2.00013,0 -6.0004,-2.00014 -6.0004,0c0,1.00007 -0.29291,-0.70715 -1.00006,0c-1.41431,1.41431 -1.00007,2.00013 -3.0002,2.00013c-1.00007,0 -4.00027,-2.00013 -4.00027,0c0,1.00007 3.0002,1.00007 3.0002,0c0,-1.00007 -1.00007,2.00013 -2.00013,2.00013c-2.00014,0 -3.0002,0 -3.0002,-1.00006l-1.00007,0l-2.00013,0l-1.00007,0" id="svg_28" stroke="#765641" fill="#9dad60"/>
 </g>

</svg>