<svg width="100" height="110" xmlns="http://www.w3.org/2000/svg">
 <g>
  <title>Layer 1</title>
  <path d="m45.23068,101.99019c0,-0.24997 0,-0.49991 0,-0.74988c0,-0.24997 0.17673,-0.82312 0,-0.99985c-0.17676,-0.17676 -0.24997,-0.24997 -0.24997,-0.49994c0,-0.49994 -0.49994,-0.49994 -0.74991,-0.49994c-0.24994,0 -0.49991,0 -0.99985,0c-0.24997,0 -0.32315,0.07321 -0.49991,0.24997c-0.35352,0.35352 -0.99988,0 -1.24982,0c-0.49994,0 -1.49979,0 -1.99973,0c-0.49991,0 -0.64633,-0.35352 -0.99985,0c-0.17676,0.17676 -0.49994,0.24997 -0.49994,0.24997c-0.49991,0 -0.82309,-0.17676 -0.99985,0c-0.17676,0.17676 -0.57312,0.07321 -0.74988,0.24997c-0.17676,0.17676 -0.07321,0.57312 -0.24997,0.74988c-0.17676,0.17676 -0.74988,0 -0.99985,0c-0.24997,0 -0.74991,0 -0.99985,0c0,0 -0.24997,0 -0.49994,0c-0.24997,0 -0.49994,0 -0.99985,0c-0.24997,0 -0.49994,0 -0.74991,0c-0.49991,0 -0.74988,0 -0.99985,0c-0.74988,0 -0.99985,0 -1.49979,0c-0.24994,0 -0.72113,-0.06857 -1.24982,-0.24997c-1.20557,-0.41364 -2.99954,-0.24994 -3.99939,-0.24994c-0.24997,0 -0.82312,-0.07321 -0.99988,-0.24997c-0.17676,-0.17676 0,-0.74991 0,-0.99985c0,-0.24997 0,-0.74991 0,-0.99988c0,-0.24994 0,-0.49991 -0.24994,-0.49991c-0.24997,0 -0.74991,0 -0.99988,0c-0.24994,0 -0.74988,0 -1.74973,0c-0.99985,0 -1.24982,0 -1.74976,0c-0.24997,0 -0.49991,0 -0.49991,-0.49994c0,-0.24997 -0.49994,-0.24997 -0.49994,-0.49991c0,-0.49994 0.24997,-0.49994 0.24997,-0.49994c0,-0.49994 -0.07321,-1.07306 -0.24997,-1.24982c-0.17676,-0.17676 -0.17633,-0.08655 -0.74988,-0.49994c-0.45343,-0.32684 -0.6767,-0.57312 -0.49994,-0.74988c0.17676,-0.17676 0.24997,-0.49994 0.24997,-0.99985c0,-0.24997 -0.24997,-0.24997 -0.24997,-0.24997c0,-0.24997 0.95697,-0.54282 0.24997,-1.24982c-0.17676,-0.17676 -0.50446,-0.2027 -0.74991,-0.24997c-1.32181,-0.25458 -1.49976,-0.49994 -1.74973,-0.49994c-0.49994,0 -0.51898,-0.15427 -0.74991,-0.24994c-0.32657,-0.13528 -1.13513,-0.67328 -0.99985,-0.99988c0.19131,-0.46188 0.57318,-0.07321 0.74991,-0.24994c0.17673,-0.17673 0.47931,-0.09671 0.74988,-0.74991c0.09567,-0.23093 0.35352,-0.64633 0,-0.99985c-0.17676,-0.17676 -0.42331,-0.11469 -0.74988,-0.24997c-0.23093,-0.09567 -1.24982,-0.74988 -1.74976,-0.74988c-0.24997,0 -0.49994,0 -0.49994,-0.24997c0,-0.24997 0,-0.74988 0,-0.74988c0,-0.49994 0.57315,-0.82312 0.74991,-0.99988c0.17673,-0.17673 0,-0.49991 0,-0.99985c0,0 -0.24997,0 -0.24997,0c0,-0.24997 -0.14642,-0.14639 -0.49994,-0.49991c-0.17676,-0.17676 -0.09567,-0.51898 0,-0.74991c0.40585,-0.97977 1.24982,-1.24982 1.24982,-1.74973c0,-0.24997 -0.14166,-0.77457 -0.24994,-0.99988c-0.69333,-1.44257 -1.45505,-1.8244 -2.24969,-2.24966c-0.22037,-0.11795 -0.49991,0 -0.74988,0c-0.24997,0 -0.4231,-0.04651 -0.74988,-0.49991c-0.41339,-0.57358 -1.17661,-1.07309 -0.99988,-1.24982c0.17676,-0.17676 0.24997,0 0.74991,0c0.49991,0 1.49979,-0.24997 1.49979,-0.74991c0,-0.24997 0.38263,-0.82599 0,-1.74973c-0.40585,-0.9798 -1.67776,-1.74515 -2.99957,-1.99973c-0.24545,-0.04727 -0.65338,0.17572 -1.24982,-0.49991c-0.3699,-0.41904 -0.57315,-0.82315 -0.74988,-0.99988c-0.17673,-0.17673 -0.3826,-0.57602 0,-1.49976c0.27054,-0.6532 0.99985,-1.24982 0.99985,-1.49979c0,-0.49994 -0.02585,-0.7265 -0.24997,-0.99985c-0.57141,-0.69699 -1.2937,-1.52426 -0.99985,-1.99973c0.13141,-0.21265 0.24997,0 0.74988,0c0.49994,0 1.07306,-0.32315 1.24982,-0.49991c0.35352,-0.35352 -0.35352,-0.64636 0,-0.99988c0.17676,-0.17676 0.55701,-0.21295 1.24982,-0.49991c1.30637,-0.54111 1.24982,-0.99985 1.24982,-1.24982c0,-0.24997 -1.3273,-1.3342 -1.99969,-1.74976c-0.30072,-0.18585 -0.92667,-0.82309 -0.74991,-0.99985c0.17676,-0.17676 0.55829,-1.42188 2.24969,-2.7496c1.05884,-0.83118 0.71957,-1.71942 1.24982,-2.24966c0.35349,-0.35349 0.74988,-0.24997 0.99985,-0.24997c0,0 0.57312,0.17676 0.74988,0c0.17676,-0.17676 0.24997,-0.24997 0.24997,-0.74988c0,0 0,-0.99985 0,-0.99985c-0.74988,-0.49994 -0.67325,-0.86459 -0.99985,-0.99988c-0.23093,-0.09567 -0.24997,-0.49991 -0.74991,-0.99985c0,0 -0.02444,-0.20609 -0.49991,-0.49991c-0.21265,-0.13141 -0.74991,-0.49994 -0.99985,-0.49994c-0.49994,0 -0.74991,0 -0.99988,-0.49994c-0.24994,-0.49991 -0.10352,-0.14642 0.24997,-0.49991c0.35352,-0.35352 0.89633,-0.89633 1.24982,-1.24982c0.88376,-0.88376 -0.17676,-1.82297 0,-1.99973c0.17676,-0.17676 1.3439,-0.76996 1.74976,-1.74973c0.09567,-0.23093 0.74988,-0.00003 0.74988,-0.49994c0,-0.24997 -0.24997,-0.24997 0.24997,-0.99985c0.99988,-1.49979 2.22906,-2.09641 2.49963,-2.7496c0.09567,-0.23093 0,-0.49991 0,-0.74988c0,-0.24997 0.04407,-0.62149 -0.49994,-0.74991c-0.24326,-0.05743 -0.24994,-0.24994 -0.49991,-0.24994c-0.49994,0 -0.52438,-0.45605 -0.99985,-0.74991c-0.42526,-0.26285 -0.49994,0 -0.49994,-0.24997c0,-0.24994 0.24997,-0.74988 0.49994,-0.99985c0.49991,-0.49994 0.62326,-0.96948 0.74988,-1.74976c0.04004,-0.2467 -0.24997,-0.74988 -0.24997,-0.74988c-0.49991,0 -0.24997,0 0,0c0,0 1.70587,-0.27441 1.99973,-0.74988c0.13141,-0.21265 0.38522,-0.17334 0.24994,-0.49994c-0.09567,-0.23093 -0.3685,-0.03732 -0.49991,-0.24997c-0.29382,-0.47546 0.39322,0.00873 2.99954,-0.99985c2.19925,-0.85104 3.91132,-1.49292 4.99927,-1.74976c0.48657,-0.11487 1.24982,-0.24994 1.24982,-0.24994c0.99988,-0.24997 1.99973,0.74988 1.99973,-0.24997c0,-0.24997 -0.75638,-0.41986 -1.24982,-0.49994c-0.78027,-0.12662 -1.99973,-0.74988 -3.24954,-1.24982c-1.24982,-0.49991 -1.45569,-1.37137 -1.99969,-1.49979c-0.24329,-0.05743 -0.64636,0.35349 -0.99985,0c-0.35349,-0.35349 -0.29404,-0.62833 0.24997,-0.49991c0.24326,0.05743 1.22678,0.12405 2.24966,0.24997c0.49615,0.0611 1.74973,0 3.74945,0c2.24966,0 2.7496,0 3.24951,0c0,0 0,-0.24997 -0.24997,-0.24997c-0.49991,0 -1.20297,-0.0517 -1.74973,-0.49994c-0.69699,-0.57138 -1.573,-0.57312 -1.74976,-0.74988c-0.17676,-0.17676 -0.19254,-0.50662 -0.24997,-0.74991c-0.12842,-0.54395 -0.24994,-0.74988 -0.24994,-1.49976c0,-0.49994 0.2059,-1.1214 0.74988,-1.24982c0.24329,-0.05743 0.49994,0 0.74988,0c0.49994,0 0.71954,-0.12335 1.49979,-0.24997c0.49347,-0.08008 1.74976,0 2.49963,0c0.74991,0 1.74976,0 1.74976,-0.49994c0,-0.24997 -0.64041,-0.15509 0.99985,-1.49977c0.69696,-0.57138 1.71915,-1.76625 1.99969,-2.24968c0.90469,-1.55904 1.86444,-2.17303 1.99973,-2.49963c0.09564,-0.23093 0,-0.24995 0,0.24997c0,0.49992 -0.23779,2.82187 0.24997,3.99942c0.34488,0.83263 0.57312,0.82309 0.74988,0.99985c0.17676,0.17676 0.73343,-0.03607 1.24982,-0.24997c0.73029,-0.30249 1.24982,-0.49992 2.49963,-1.24982c1.24982,-0.74988 2.93549,-2.81046 6.49905,-6.49904c1.47372,-1.52541 1.61563,-2.43094 3.24951,-3.4995c0.46777,-0.30592 0.42673,-0.92664 0.24997,-0.74988c-0.17676,0.17674 -0.57315,0.57315 -0.74988,0.74988c-0.35352,0.35352 -0.0809,0.62994 -0.49994,0.99986c-0.67566,0.59645 -1.13513,1.67311 -0.99985,1.99971c0.19131,0.46185 0.51343,-0.14182 1.24982,0c1.32181,0.25456 1.6572,0.65613 2.49963,1.24982c0.73669,0.51917 -0.23581,2.69142 0.74988,3.49948c0.1933,0.15848 0.60464,-0.10471 0.99985,-0.49992c0.39523,-0.39525 0.80283,-0.67844 1.49979,-1.24982c0.54675,-0.44823 0.49994,-0.49992 0.49994,0c0,0.24995 -0.04758,0.72028 -0.49994,1.49977c-0.28055,0.48344 -0.24997,0.99986 0.24997,0.99986c0.24997,0 0.99985,0 1.49979,0c0.74988,0 2.47098,-0.24924 5.74915,-0.49992c4.23703,-0.32402 7.48853,-0.12479 9.7486,-0.24997c0.74872,-0.04147 1.49976,-0.24997 1.24982,-0.24997c-0.99988,0 -1.99194,0.37485 -4.99927,0.49994c-1.74823,0.07272 -3.05127,0.70305 -3.49951,1.24982c-0.57138,0.69696 -0.49991,1.24982 -0.49991,1.49977c0,0 0.49991,0 0.74988,0c0.74988,0 1.99973,0 3.49948,0c1.24982,0 2.39612,-0.35349 2.7496,0c0.17676,0.17676 -0.23752,1.00992 -1.24982,2.24968c-1.23477,1.51221 -1.69229,2.25635 -1.74973,2.49963c-0.12842,0.54398 -0.60349,0.64633 -0.24997,0.99985c0.35349,0.35349 0.70581,-0.12155 1.24982,-0.24997c0.48654,-0.11487 0.44962,0.16788 0,0.49994c-1.22305,0.90332 -3.20239,1.28348 -3.74945,1.99969c-0.47983,0.6282 -1.29749,1.10538 -2.24969,1.49979c-1.34659,0.55777 -1.49976,0.99985 -1.99969,0.99985c-0.49994,0 -0.99985,0.49994 -0.99985,0.49994c0,0.24997 0,0.49991 0,0.99985c0,0.24997 0.24997,0.49994 0.49991,0.49994c0.74991,0 1.66699,0.15503 2.49963,0.49991c1.17755,0.48776 2.24969,0.24997 2.99957,0.24997c0.99985,0 1.99973,0 2.99957,0c1.49979,0 3.00064,-0.03311 3.49948,0c3.77432,0.25052 5.73981,0.37512 8.24878,0.24997c0.24966,-0.01245 1.74976,0 2.99957,0c0.24997,0 1.24982,0.74988 1.24982,0c0,-0.49994 -1.22678,0.12405 -2.24966,0.24997c-3.96945,0.48868 -6.74902,0 -7.4989,0c-0.24997,0 -0.3837,0.07764 -0.74991,0.49991c-0.51791,0.59717 -0.24994,0.99985 0.24997,0.99985c0.24997,0 0.23346,0.21939 -0.24997,0.49994c-0.77951,0.45236 -1.80478,1.44849 -2.49963,2.24966c-0.81888,0.94418 -1.49976,1.74979 -1.49976,2.24969c0,0.24994 0.23093,0.1543 0,0.24994c-0.6532,0.27057 -1.24982,1.24982 -1.74976,1.74976c0,0 0.12842,-0.04407 0,0.49994c-0.05743,0.24326 0.24997,0.49991 0.24997,0.99985c0,0.24997 0.49991,0.24997 1.24982,0.99985c0.74988,0.74988 1.573,1.32306 1.74973,1.49979c0.17676,0.17676 0.35352,0.64633 0,0.99985c-0.35349,0.35349 -0.69122,0.03806 -0.49991,0.49994c0.27054,0.65317 0.78287,0.43875 1.74973,0.99985c0.77951,0.45236 1.30725,0.75656 1.24982,0.99985c-0.12842,0.54398 -0.3923,0.53317 -0.74988,1.49979c-0.38785,1.04843 -0.74988,2.24966 -0.74988,2.99954c0,0.49994 0,0.99988 0,0.99988c0,0.24994 -0.09567,0.51895 0,0.74988c0.40582,0.97977 1.70584,1.02432 1.99969,1.49979c0.13141,0.21265 0.24997,0.24997 0.24997,0.49991c0,0.24997 -0.07321,0.32318 -0.24997,0.49994c-0.35352,0.35352 -1.16971,1.14261 -1.74976,2.24966c-0.7337,1.40033 -0.99985,2.49963 -0.99985,2.7496c0,0.24997 -0.10352,0.39639 0.24997,0.74988c0.17676,0.17676 0.49994,0 0.99985,0c0.24997,0 0.49994,0 0.49994,0c-0.24997,0.49994 -0.67328,1.11456 -0.99985,1.24982c-0.46188,0.19131 -0.57761,0.38367 -0.99988,0.74991c-0.59714,0.51791 -0.64633,1.14627 -0.99985,1.49979c-0.35349,0.35349 -0.4267,0.32318 -0.24997,0.49991c0.17676,0.17676 0.34296,0.34622 1.24982,0.99985c0.28677,0.2067 1.40497,0.98126 2.99957,1.49979c1.44595,0.47018 6.49905,2.99957 6.49905,2.49963c0,-0.24997 -0.51898,0.1543 -0.74991,0.24997c-0.97977,0.40582 -2.07196,1.01202 -3.24951,1.49979c-0.83264,0.34488 -2.29587,0.96423 -3.24951,2.24966c-0.80203,1.08109 -0.99988,1.49979 -0.99988,1.99969c0,0.24997 -0.0611,0.50369 0,0.99988c0.12592,1.02289 0.27444,1.4559 0.74991,1.74973c0.42526,0.26282 0.24997,0 -0.24997,0c-0.24997,0 -0.57315,0.07324 -0.74988,0.24997c-0.17676,0.17676 -0.13141,0.7872 0,0.99985c0.29382,0.47546 1.3436,1.23486 2.74957,1.99973c0.69437,0.37775 0.99988,0.24994 0.74991,0.24994c-0.24997,0 -0.45859,1.05841 -1.49979,1.74976c-0.85858,0.5701 -2.24966,0.99985 -2.99957,1.24982c-1.49976,0.49994 -1.99969,0.74988 -1.99969,0.74988c0,0.24997 -0.49994,0.24997 -0.74988,0.24997c-0.74991,0 -1.07309,0.32321 -1.24982,0.49994c-0.17676,0.17676 -0.70587,0.37149 -1.24982,0.49991c-0.48657,0.11487 -0.52441,0.45605 -0.99988,0.74991c-0.42526,0.26282 -1.47919,0.09671 -1.74973,0.74988c-0.09567,0.23093 0.05914,0.26407 0.49991,0.49994c0.79462,0.42526 1.51315,0.63501 1.99973,0.74988c0.54398,0.12842 0.4809,0.65427 0.24997,0.74991c-0.3266,0.13525 -0.77576,0.22653 -0.99988,0.49991c-0.57138,0.69699 -0.42307,1.04636 -0.74988,1.49979c-0.2067,0.28677 -0.1543,1.01889 -0.24997,1.24982c-0.13528,0.3266 -0.39639,0.64636 -0.74988,0.99985c-0.53027,0.53027 -1.80682,-0.28696 -2.49963,0c-0.3266,0.13528 -0.49994,0.49994 -0.99988,0.49994c-0.49991,0 -0.49991,0.49991 -0.74988,0.49991c-0.49994,0 -0.74988,0 -0.99985,0c-0.49994,0 -0.74991,0 -0.99985,0c-0.49994,0 -0.49994,0.49994 -0.24997,0.74991c0.49991,0.49991 1.35449,1.31396 1.74973,2.49963c0.15808,0.47427 -0.24994,0.49994 -0.24994,0.49994c-0.49994,0 -1.07306,0.57312 -1.24982,0.74988c-0.35352,0.35352 -0.74991,0 -1.24982,0c-0.74991,0 -0.89633,-0.10352 -1.24982,0.24997c-0.17676,0.17676 -0.49994,0.49991 -0.74991,0.49991c-0.49991,0 -0.57312,0.32318 -0.74988,0.49994c-0.17676,0.17676 -0.51895,-0.15433 -0.74991,-0.24997c-0.3266,-0.13525 -0.49991,0.24997 -0.74988,0.24997c-0.24997,0 -0.17676,0.07321 0,0.24997c0.17676,0.17676 0,0.49991 0,0.99985c0,0.49994 0.74988,1.24982 0.74988,1.24982c-0.24994,0 -0.57312,0.07321 -0.74988,0.24997c-0.17676,0.17676 -0.49994,0 -0.99985,0c-0.24997,0 -0.24997,0 -0.49994,0c-0.24997,0 -0.74988,0 -0.74988,0c-0.49994,0 -0.74991,0 -0.99985,0c-0.24997,0 -0.74991,0 -0.99988,0c0,0 -0.24994,0 -0.49991,0c-0.49994,0 -0.49994,0 -0.74991,0c-0.24994,0 -0.49991,0 -0.74988,0l0,0.49991" id="svg_27" stroke="#765641" fill="#9dad60"/>
 </g>

</svg>