<svg width="72" height="110" xmlns="http://www.w3.org/2000/svg">
 <defs>
    <linearGradient id="grad1" x1="0%" y1="0%" x2="0%" y2="100%">
      <stop offset="0%" style="stop-color:rgb(142,185,122);stop-opacity:1" />
      <stop offset="100%" style="stop-color:rgb(96,164,77);stop-opacity:1" />
    </linearGradient>
    <linearGradient id="grad2" x1="0%" y1="0%" x2="100%" y2="0%">
      <stop offset="0%" style="stop-color:rgb(183,124,93);stop-opacity:1" />
      <stop offset="100%" style="stop-color:rgb(121,111,98);stop-opacity:1" />
    </linearGradient>
  </defs>
  <g>
  <path d="M 30 60 L 30 100 A 21 100 4.5 0 0 39 100 L 39 60 L 30 60" id="tree_1_torzs" stroke="#765641" fill="url(#grad2)"/>
  <path d="m5.01112,46.02405c0,-0.49989 -0.14641,-0.6463 -0.49989,-0.99978c-0.35348,-0.35348 0,-1.49967 0,-1.49967c0,-0.99978 0,-1.99956 0,-1.99956c-0.49989,0 -0.49989,-0.99978 -0.49989,-1.49967c0,-0.49989 -1.1462,-1.14619 -1.49967,-1.49967c-0.35348,-0.35347 0.49989,-0.49989 0.49989,-0.99978c0,-0.49989 0.49989,-0.49989 0.49989,-0.99978c0,-0.49989 0,-0.49989 0,-0.99978c0,-0.49989 0,-1.49967 0,-1.99956c0,-0.49989 -0.99978,-0.49989 -0.99978,-0.99978c0,-0.99978 0,-0.99978 0,-1.99956c0,-0.99978 0.14641,-0.64631 0.49989,-0.99978c0.70695,-0.70695 0,-1.49967 0,-1.99956c0,-0.99978 0.49989,-0.99978 0.49989,-1.49967c0,-0.49989 0,-0.99978 0,-1.99956c0,-0.49989 0.14641,-0.6463 0.49989,-0.99978c0.70695,-0.70695 0.22935,-1.84631 0.49989,-2.49945c0.3826,-0.92368 1.1462,-0.64631 1.49967,-0.99978c0.35348,-0.35348 0.6463,-0.14642 0.99978,-0.49989c0.35348,-0.35348 0.64631,-0.14641 0.99978,-0.49989c0.70695,-0.70695 0,-0.99978 0,-0.99978c0,-0.99978 0.99978,-0.99978 0.99978,-1.49967c0,-0.49989 0,-1.49967 0,-1.99956c0,-0.49989 0.34664,-0.72924 0.99978,-0.99978c0.92368,-0.3826 0.99978,-0.99978 1.49967,-0.99978c0.49989,0 0.49989,-0.49989 0.99978,-0.49989c1.49967,0 1.99956,0 2.99934,0c0.99978,0 1.69307,-0.9586 2.99934,-1.49967c0.46184,-0.1913 1.49967,-0.49989 1.49967,-0.99978c0,-0.99978 0,-1.49967 0.99978,-1.49967c0,0 0,-0.49989 0.49989,-0.49989c0.49989,0 0.49989,0 0.99978,0c0.99978,0 1.49967,0 1.99956,0c0.49989,0 1.49967,0 1.99956,0c0.49989,0 1.49967,0 1.49967,0c0.49989,0 0.99978,-0.49989 1.49967,-0.49989c0.49989,0 -0.20706,-0.29283 0.49989,-0.99978c0.70695,-0.70695 1.49967,0 1.99956,0c0.49989,0 0.64631,0.35348 0.99978,0c0.35348,-0.35348 0,-0.99978 0.99978,-0.99978c0.99978,0 1.99956,0 1.99956,0c0,-0.49989 0.99978,-0.49989 1.49967,-0.49989c0.49989,0 0.64631,-0.14641 0.99978,-0.49989c0.35348,-0.35348 0.99978,-0.49989 1.49967,-0.49989c0.49989,0 1.99956,0 2.49945,0c0.99978,0 1.04871,0.91201 1.99956,1.49967c0.85046,0.52561 1.14619,0.14641 1.49967,0.49989c0.35348,0.35348 0.19339,1.95838 1.49967,2.49945c0.46184,0.1913 0.49989,0 0.99978,0c0.99978,0 1.07444,-0.26281 1.49967,0c0.95085,0.58766 1.49967,0.99978 1.99956,0.99978c0.49989,0 0.99978,0 1.99956,0c0.49989,0 0.99978,0 1.99956,0c0,0 0.99978,0 1.49967,0c1.49967,0 1.2926,0.29283 1.99956,0.99978c0.35348,0.35348 0.64631,-0.35348 0.99979,0c0.70695,0.70695 0.0761,1.11707 0.99978,1.49967c1.95942,0.81162 1.99956,2.49945 2.49945,2.49945c0,0 -0.35348,1.14619 0,1.49967c0.70695,0.70695 0.99978,0.49989 0.99978,0.99978c0,0.99978 0.08653,1.42605 0.49989,1.99956c0.65358,0.9068 1.9118,1.04872 2.49945,1.99956c0.52562,0.85046 0,0.99978 0,1.49967c0,0.49989 0.99978,0.49989 0.99978,1.49967c0,0.99978 0.4587,1.69307 0.99978,2.99934c0.5739,1.38552 0.11485,2.01294 0,2.49945c-0.25681,1.08788 -0.14641,1.64608 -0.49989,1.99956c-0.35348,0.35348 -1.49967,0.99978 -1.49967,0.99978c-0.49989,0 0,0 0,0.99978c0,0.99978 0.49989,0.99978 0.49989,0.99978c0,0.99978 0,1.49967 0,1.99956c0,0.99978 0,1.49967 0,1.99956c0,0.49989 0.49989,0.49989 0.49989,1.49967c0,0.49989 0.35348,1.14619 0,1.49967c-0.70695,0.70695 -0.99978,0.99978 -0.99978,1.49967c0,0.49989 0.11485,1.01316 0,1.49967c-0.25681,1.08789 -0.29282,1.29261 -0.99978,1.99956c-0.70695,0.70695 -1.64609,-0.35348 -1.99957,0c-0.70695,0.70695 -0.49989,0.49989 -0.99978,0.49989c-0.49989,0 0.3065,0.95859 -0.99978,1.49967c-0.92368,0.3826 -0.99978,0.99978 -0.99978,1.99956c0,0 -0.1913,1.03783 0,1.49967c0.27054,0.65313 0.85336,0.64631 0.49989,0.99978c-0.35347,0.35347 -0.49989,0 -0.49989,0.99978c0,0.49989 -1.1462,0.14642 -1.49967,0.49989c-0.35348,0.35348 -0.44256,1.5645 -0.99979,1.99957c-2.29749,1.79382 -2.14597,2.14597 -2.49945,2.49945c-0.70695,0.70695 -0.47417,0.14931 -0.99978,0.99978c-0.58765,0.95085 -1.49967,0.49989 -1.99956,0.49989c-0.99978,0 -1.1462,0.14642 -1.49967,0.49989c-0.35347,0.35348 -0.99978,0 -1.99956,0c-0.49989,0 -1.29261,-0.70695 -1.99956,0c-0.35348,0.35348 -0.14642,1.14619 -0.49989,1.49967c-0.35348,0.35348 0,0.99979 0,1.49967c0,0.49989 -0.22935,0.34664 -0.49989,0.99978c-0.1913,0.46184 0,0.99979 -0.99978,0.99979c-0.49989,0 -0.6463,0.6463 -0.99978,0.99978c-0.70695,0.70695 -1.49967,0.99978 -1.99956,0.99978c-0.99978,0 -0.64631,-0.35347 -0.99978,0c-0.35348,0.35348 -1.49967,0 -2.99934,0c-0.49989,0 -1.49967,0 -1.49967,-0.49989c0,0 -1.14619,-0.35348 -1.49967,0c-0.35347,0.35347 -0.49989,0.49989 -0.49989,0.49989c-0.49989,0 -1.14619,-0.14642 -1.49967,-0.49989c-0.35348,-0.35348 -0.99978,-0.99979 -0.99978,-0.99979c-0.99978,0 -1.64609,0.35348 -1.99956,0c-0.35347,-0.35347 -0.99978,-0.99978 -1.49967,-0.99978c-0.49989,0 -2.49945,-0.99978 -3.49923,-0.99978c-0.49989,0 -0.99978,0 -1.49967,0c-0.99978,0 -1.14619,-1.14619 -1.49967,-1.49967c-0.35348,-0.35348 -1.9118,0.45096 -2.49945,-0.49989c-0.52561,-0.85046 -0.6463,-1.14619 -0.99978,-1.49967c-0.70695,-0.70695 -1.29261,-0.79272 -1.99956,-1.49966c-0.70695,-0.70695 -1.99956,0 -1.99956,0c-0.99978,0 -1.99956,0 -3.99912,0c0,0 -0.49989,-0.49989 -0.99978,-0.49989c-0.49989,0 -0.41045,-0.6492 -1.99956,-1.49967c-0.44074,-0.23588 -1.29261,-0.29282 -1.99956,-0.99978c-0.35348,-0.35348 -0.6463,-1.14619 -0.99978,-1.49967c-0.35348,-0.35348 0.30859,-0.53794 0.49989,-0.99978c0.27054,-0.65314 -0.49989,-1.49967 0,-1.49967c0,0 -0.49989,-0.99978 -0.49989,-0.99978c0,-0.99978 0,-0.99978 0,-1.49967c0,-0.49989 0.35348,-1.1462 0,-1.49967c-0.70695,-0.70695 -0.99978,-0.49989 -1.49967,-0.49989l0.99978,0" id="tree_1_korona" stroke="#765641" fill="url(#grad1)"/>
 </g>

</svg>