<svg width="72" height="110" xmlns="http://www.w3.org/2000/svg">
    <defs>
        <linearGradient id="grad1" x1="0%" y1="0%" x2="0%" y2="100%">
            <stop offset="0%" style="stop-color:rgb(142,185,122);stop-opacity:1" />
            <stop offset="100%" style="stop-color:rgb(96,164,77);stop-opacity:1" />
        </linearGradient>
        <linearGradient id="grad2" x1="0%" y1="0%" x2="100%" y2="0%">
            <stop offset="0%" style="stop-color:rgb(183,124,93);stop-opacity:1" />
            <stop offset="100%" style="stop-color:rgb(121,111,98);stop-opacity:1" />
        </linearGradient>
    </defs>
    <g>
        <path d="M 30 60 L 30 100 A 21 100 4.5 0 0 39 100 L 39 60 L 30 60" id="tree_1_torzs" stroke="#765641" fill="url(#grad2)"/>
        <path d="M 30 60 L 10 40 L 12 38 L 34 60 L 30 60" id="tree_1_torzs" stroke="#765641" fill="url(#grad2)"/>
        <path d="M 39 60 L 59 40 L 58 38 L 35 60 L 30 69" id="tree_1_torzs" stroke="#765641" fill="url(#grad2)"/>
        <path d="M 32 60 L 32 40 L 37 40 L 37 60 L 32 60" id="tree_1_torzs" stroke="#765641" fill="url(#grad2)"/>
        <path d="M 32 40 L 17 25 L 20 25 L 35 40 L 32 40" id="tree_1_torzs" stroke="#765641" fill="url(#grad2)"/>
        <path d="M 37 40 L 52 25 L 49 25 L 33 40 L 37 40" id="tree_1_torzs" stroke="#765641" fill="url(#grad2)"/>
        <path d="M 33 40 L 33 26 L 35 26 L 35 40 L 33 40" id="tree_1_torzs" stroke="#765641" fill="url(#grad2)"/>
        <line x1="27" y1="53" x2="30" y2="44" stroke="#765641" stroke-width="2"/>
        <line x1="28" y1="58" x2="19" y2="59" stroke="#765641" stroke-width="2"/>
        <line x1="22" y1="48" x2="23" y2="40" stroke="#765641" stroke-width="2"/>
        <line x1="14" y1="40" x2="12" y2="32" stroke="#765641" stroke-width="2"/>
        <line x1="11" y1="39" x2="3" y2="36" stroke="#765641" stroke-width="2"/>
        <line x1="12" y1="43" x2="6" y2="45" stroke="#765641" stroke-width="2"/>
        <line x1="19" y1="49" x2="13" y2="51" stroke="#765641" stroke-width="2"/>
        <line x1="48" y1="52" x2="56" y2="54" stroke="#765641" stroke-width="2"/>
        <line x1="56" y1="44" x2="63" y2="43" stroke="#765641" stroke-width="2"/>
        <line x1="57" y1="39" x2="60" y2="32" stroke="#765641" stroke-width="2"/>
        <line x1="52" y1="43" x2="55" y2="35" stroke="#765641" stroke-width="2"/>
        <line x1="45" y1="50" x2="46" y2="42" stroke="#765641" stroke-width="2"/>
        <line x1="44" y1="33" x2="51" y2="33" stroke="#765641" stroke-width="2"/>
        <line x1="51" y1="27" x2="55" y2="26" stroke="#765641" stroke-width="2"/>
        <line x1="51" y1="25" x2="52" y2="19" stroke="#765641" stroke-width="2"/>
        <line x1="46" y1="29" x2="45" y2="23" stroke="#765641" stroke-width="2"/>
        <line x1="39" y1="36" x2="41" y2="29" stroke="#765641" stroke-width="2"/>
        <line x1="34" y1="30" x2="38" y2="28" stroke="#765641" stroke-width="2"/>
        <line x1="34" y1="26" x2="40" y2="24" stroke="#765641" stroke-width="2"/>
        <line x1="33" y1="26" x2="29" y2="24" stroke="#765641" stroke-width="2"/>
        <line x1="27" y1="33" x2="28" y2="28" stroke="#765641" stroke-width="2"/>
        <line x1="23" y1="29" x2="24" y2="21" stroke="#765641" stroke-width="2"/>
        <line x1="19" y1="25" x2="17" y2="19" stroke="#765641" stroke-width="2"/>
        <line x1="19" y1="27" x2="12" y2="28" stroke="#765641" stroke-width="2"/>
        <line x1="27" y1="35" x2="20" y2="36" stroke="#765641" stroke-width="2"/>
    </g>

</svg>