<svg xmlns="http://www.w3.org/2000/svg"
     width="160.000000pt" height="150.000000pt" viewBox="0 0 160.000000 150.000000"
     preserveAspectRatio="xMidYMid meet">

    <path d="M 144 51 L 144 20 L 136 13 L 128 44 L 128 73 L 144 51
         " stroke-width="3" stroke="#765641" fill="#EAD7AF"/>
    <path d="M 128 44 L 128 73 L 123 72 L 123 44 L 128 44
         " stroke-width="3" stroke="#765641" fill="#EAD7AF"/>
    <path d="M 123 72 L 123 44 L 97 72 L 102 98 L 123 72
         " stroke-width="3" stroke="#765641" fill="#EAD7AF"/>

    <path d="M 137 39 L 137 48 L 133 54 L 133 45 L 137 39
         " stroke-width="3" stroke="#765641" fill="#B8D1E6"/>
    <path d="M 119 56 L 119 64 L 110 74 L 110 66 L 119 56
         " stroke-width="3" stroke="#765641" fill="#B8D1E6"/>
    <path d="M 110 74 L 110 66 L 101 76 L 101 83 L 110 74
         " stroke-width="3" stroke="#765641" fill="#B8D1E6"/>

    <path d="M 24 90 L 24 119 L 78 136 L 78 103 L 24 90
         " stroke-width="3" stroke="#765641" fill="#EAD7AF"/>
    <path d="M 78 136 L 78 103 L 91 70 L 102 77 L 102 106 L 78 136
         " stroke-width="3" stroke="#765641" fill="#EAD7AF"/>

    <path d="M 98 87 L 98 99 L 93 103 L 93 91 L 98 87
         " stroke-width="3" stroke="#765641" fill="#B8D1E6"/>
    <path d="M 74 135 L 74 109 L 64 107 L 64 131 L 74 135
         " stroke-width="3" stroke="#765641" fill="#B8D1E6"/>
    <path d="M 56 129 L 56 104 L 51 103 L 51 127 L 56 129
         " stroke-width="3" stroke="#765641" fill="#B8D1E6"/>

    <path d="M 94 6 L 135 12 L 128 43 L 86 38 L 94 6
         " stroke-width="3" stroke="#765641" fill="#7F7F7F"/>
    <path d="M 113 10 L 122 44 L 95 74 L 64 63 L 113 10
         " stroke-width="3" stroke="#765641" fill="#7F7F7F"/>
    <path d="M 36 57 L 91 70 L 78 103 L 24 89 L 36 57
         " stroke-width="3" stroke="#765641" fill="#7F7F7F"/>

</svg>