<svg xmlns="http://www.w3.org/2000/svg"
     width="250.000000pt" height="191.000000pt" viewBox="0 0 250.000000 191.000000"
     preserveAspectRatio="xMidYMid meet">


    <path d="M 58 84 L 78 80 L 78 58 L 58 63 L 58 84
         " stroke-width="3" stroke="#765641" fill="#EAD7AF"/>
    <path d="M 78 80 L 78 58 L 90 65 L 90 90 L 78 80
         " stroke-width="3" stroke="#765641" fill="#EAD7AF"/>
    <path d="M 138 138 L 138 105 L 219 85 L 219 113 L 138 138
         " stroke-width="3" stroke="#765641" fill="#EAD7AF"/>

    <path d="M 63 77 L 63 68 L 74 66 L 74 75 L 63 77
             " stroke-width="3" stroke="#765641" fill="#B8D1E6"/>

    <path d="M 90 89 L 90 65 L 83 62 L 83 84
             " stroke-width="3" stroke="#765641" fill="#E0E0E0"/>

        <path d="M 138 138 L 138 105 L 90 57 L 90 90 L 138 138
             " stroke-width="3" stroke="#765641" fill="#EAD7AF"/>
        <path d="M 90 57 L 90 65 L 69 70 L 69 62 L 90 57
             " stroke-width="3" stroke="#765641" fill="#EAD7AF"/>
        <path d="M 69 70 L 69 62 L 23 21 L 22 50 L 58 84 L 58 63 L 69 70
             " stroke-width="3" stroke="#765641" fill="#EAD7AF"/>

        <path d="M 69 94 L 90 90 L 78 80 L 58 84 L 69 94
             " stroke-width="3" stroke="#765641" fill="#B97A54"/>
        <line x1="69" y1="62" x2="69" y2="94" stroke-width="3" stroke="#765641"/>


        <path d="M 142 110 L 169 66 L 225 84 L 142 110
                 " stroke-width="3" stroke="#765641" fill="#D87254"/>
        <path d="M 142 110 L 169 66 L 121 18 L 90 59 L 142 110
                 " stroke-width="3" stroke="#765641" fill="#DA5E53"/>
        <path d="M 169 66 L 225 84 L 168 38 L 122 18 L 169 66
                 " stroke-width="3" stroke="#765641" fill="#D87254"/>
        <path d="M 168 38 L 110 9 L 132 7 L 168 38
                 " stroke-width="3" stroke="#765641" fill="#D87254"/>
        <path d="M 110 9 L 66 65 L 90 59 L 121 18 L 110 9
                 " stroke-width="3" stroke="#765641" fill="#D87254"/>
        <path d="M 110 9 L 66 65 L 18 18 L 110 9
                 " stroke-width="3" stroke="#765641" fill="#DA5E53"/>

        <path d="M 218 113 L 218 90 L 198 96 L 198 120
                 " stroke-width="3" stroke="#765641" fill="#E0E0E0"/>

        <path d="M 219 87 L 193 94 L 221 124 L 244 115 L 219 87
                 " stroke-width="3" stroke="#765641" fill="#D87254"/>
        <line x1="240" y1="117" x2="240" y2="136" stroke-width="3" stroke="#765641"/>
        <line x1="217" y1="120" x2="217" y2="141" stroke-width="3" stroke="#765641"/>

        <path d="M 153 123 L 173 117 L 173 105 L 153 112 L 153 123
                 " stroke-width="3" stroke="#765641" fill="#B8D1E6"/>
        <path d="M 126 113 L 126 103 L 133 110 L 133 120 L 126 113
                 " stroke-width="3" stroke="#765641" fill="#B8D1E6"/>
        <path d="M 110 98 L 110 86 L 120 96 L 120 108 L 110 98
                 " stroke-width="3" stroke="#765641" fill="#B8D1E6"/>
        <path d="M 95 82 L 95 72 L 104 80 L 104 90 L 95 82
                 " stroke-width="3" stroke="#765641" fill="#B8D1E6"/>
        <path d="M 53 69 L 53 58 L 44 49 L 44 59 L 53 69
                 " stroke-width="3" stroke="#765641" fill="#B8D1E6"/>
        <path d="M 37 54 L 37 43 L 27 34 L 27 45 L 37 54
                 " stroke-width="3" stroke="#765641" fill="#B8D1E6"/>

</svg>