<svg xmlns="http://www.w3.org/2000/svg"
     width="212.000000pt" height="191.000000pt" viewBox="0 0 212.000000 191.000000"
     preserveAspectRatio="xMidYMid meet">
	 
	 
	     <path d="M 124 113 L 124 82 L 152 39 L 186 66 L 186 95 L 124 113
         " stroke-width="3" stroke="#765641" fill="#EAD7AF"/>
	     <path d="M 124 113 L 124 82 L 77 50 L 77 77 L 124 113
         " stroke-width="3" stroke="#765641" fill="#EAD7AF"/>
	     <path d="M 77 50 L 77 77 L 52 84 L 52 54 L 77 50
         " stroke-width="3" stroke="#765641" fill="#EAD7AF"/>
	     <path d="M 52 84 L 52 54 L 38 16 L 19 27 L 19 57 L 52 84
         " stroke-width="3" stroke="#765641" fill="#EAD7AF"/>

	<path d="M 66 80 L 66 70 L 52 73 L 52 84 L 66 80
         " stroke-width="3" stroke="#765641" fill="#DA5E53"/>
	<line x1="66" y1="80" x2="66" y2="61" stroke-width="3" stroke="#765641"/>
	<line x1="52" y1="64" x2="77" y2="59" stroke-width="3" stroke="#765641"/>
	<path d="M 52 84 L 52 73 L 40 66 L 40 73 L 52 84
         " stroke-width="3" stroke="#765641" fill="#DA5E53"/>
	<line x1="40" y1="73" x2="40" y2="55" stroke-width="3" stroke="#765641"/>
	<line x1="40" y1="55" x2="52" y2="64" stroke-width="3" stroke="#765641"/>

	<path d="M 119 108 L 119 90 L 107 80 L 107 100
         " stroke-width="3" stroke="#765641" fill="#DA5E53"/>
	<path d="M 102 96 L 102 77 L 91 69 L 91 87
         " stroke-width="3" stroke="#765641" fill="#DA5E53"/>

	<path d="M 138 96 L 138 82 L 149 79 L 149 92 L 138 96
         " stroke-width="3" stroke="#765641" fill="#B8D1E6"/>
	<path d="M 163 89 L 163 74 L 173 71 L 173 86 L 163 89
         " stroke-width="3" stroke="#765641" fill="#B8D1E6"/>
	<path d="M 150 65 L 150 52 L 158 49 L 158 63 L 150 65
         " stroke-width="3" stroke="#765641" fill="#B8D1E6"/>
	<path d="M 36 60 L 36 49 L 31 45 L 31 56 L 36 60
         " stroke-width="3" stroke="#765641" fill="#B8D1E6"/>
	<path d="M 27 52 L 27 42 L 23 39 L 23 49 L 27 52
         " stroke-width="3" stroke="#765641" fill="#B8D1E6"/>
	<path d="M 37 36 L 37 27 L 31 24 L 31 33 L 37 36
         " stroke-width="3" stroke="#765641" fill="#B8D1E6"/>


	<path d="M 77 51 L 99 8 L 153 38 L 120 86 L 77 51
         " stroke-width="3" stroke="#765641" fill="#DA5E53"/>
    <path d="M 77 51 L 99 8 L 38 16 L 50 56 L 77 51
         " stroke-width="3" stroke="#765641" fill="#D87254"/>
		 <line x1="153" y1="38" x2="190" y2="69" stroke-width="3" stroke="#765641"/>
		 <line x1="38" y1="16" x2="15" y2="29" stroke-width="3" stroke="#765641"/>


</svg>