<svg width="100%" height="100%" viewBox="0 0 2850 2500" version="1.1"
     xmlns="http://www.w3.org/2000/svg">

    <path d="M 535 1786 L 424 1896 A 50 36 150 1 1 356 1805 A 60 30  1 0 1 454 1805 A 60 30  1 0 0 488 1803 L 524 1769 L 732 1409 L 1350 294
         A 100 100 0 0 1 1496 269 L 1797 456 A 20 20 1 0 0 1826 447 L 1907 288 L 1925 297 L 1841 463 A 20 20 1 0 0 1847 489 L 2348 823 L 2582 952
		 A 180 180 0 0 1 2661 1036 L 2705 1123 A 180 180 0 0 0 2777 1200 L 2833 1231
		 L 2827 1251
		 L 2793 1231 A 220 220 0 0 1 2697 1146 L 2639 1033 A 180 180 0 0 0 2570 969 L 2330 836 L 1835 505 A 20 20 1 0 0 1815 511 L 1613 914
		 L 1595 905
		 L 1799 501 A 20 20 1 0 0 1790 474 L 1479 283 A 80 80 0 0 0 1370 300 L 866 1212L 702 1502 L 535 1786" stroke-width="1" stroke="#666666" fill="#EECEA7"/>
    <path d="M 461 1829 L 407 1888 A 50 36 150 1 1 375 1821 A 70 30 1 0 1 461 1829" stroke-width="1" stroke="#666666" fill="lightgreen"/>

</svg>