<svg width="100%" height="100%" viewBox="0 0 2850 2500" version="1.1"
     xmlns="http://www.w3.org/2000/svg">

    <path d="M 170 1850 L 1100 0 L 1600 0 L 2800 700 L 2600 1100 L 2500 1050 L 2450 1150 L 1720 720
             L 1590 950 L 1350 820 L 560 2070" fill="#C4CD92" stroke="none" stroke-width="1"/>

    <path d="M 545 1786 L 424 1896 A 50 36 150 1 1 356 1805 A 60 30  1 0 1 454 1805 A 60 30  1 0 0 488 1803 L 534 1769 L 732 1409 L 1350 294
         A 100 100 0 0 1 1496 269 L 1797 456 A 20 20 1 0 0 1826 447 L 1907 288 L 1925 297 L 1841 463 A 20 20 1 0 0 1847 489 L 2351 820 L 2585 949
		 A 180 180 0 0 1 2669 1033 L 2711 1117 A 180 180 0 0 0 2783 1192 L 2833 1220
		 L 2827 1240
		 L 2793 1221 A 220 220 0 0 1 2697 1140 L 2642 1030 A 180 180 0 0 0 2573 972 L 2333 833 L 1835 505 A 20 20 1 0 0 1815 511 L 1600 914
		 L 1582 905
		 L 1799 501 A 20 20 1 0 0 1790 474 L 1479 283 A 80 80 0 0 0 1370 300 L 866 1212L 702 1502 L 545 1786" stroke-width="1" stroke="#666666" fill="#FFFFFF"/>
    <path d="M 461 1829 L 407 1888 A 50 36 150 1 1 375 1821 A 70 30 1 0 1 461 1829" stroke-width="1" stroke="#666666" fill="#C4CD92"/>

    <path d="M 2550 931 L 2770 282 L 2785 290 L 2565 938 L 2550 931" stroke-width="1" stroke="#666666" fill="#FFFFFF"/>

    <path d="M 1073 837 A 20 20 1 0 1 1095 830 L 1104 814 A 20 20 1 0 1 1100 789" stroke-width="1" stroke="#666666" fill="#FFFFFF"/>

</svg>