<svg xmlns="http://www.w3.org/2000/svg"
     width="200.000000pt" height="170.000000pt" viewBox="0 0 200.000000 170.000000"
     preserveAspectRatio="xMidYMid meet">

    <path d="M 8 45 L 48 25 L 78 45 L 8 45" stroke-width="3" stroke="#99D9EA" fill="white"/>
    <path d="M 48 25 L 78 45 L 88 37 L 65 19 L 48 25" stroke-width="3" stroke="#99D9EA" fill="white"/>
    <path d="M 88 37 L 65 19 L 75 10 L 110 37 L 88 37" stroke-width="3" stroke="#99D9EA" fill="white"/>
    <path d="M 75 10 L 110 37 L 120 27 L 87 6 L 75 10" stroke-width="3" stroke="#99D9EA" fill="white"/>

    <path d="M 72 63 L 96 74 L 103 66 L 83 54 L 72 63" stroke-width="3" stroke="#99D9EA" fill="white"/>
    <line x1="72" y1="63" x2="51" y2="75" stroke-width="3" stroke="#99D9EA"/>

    <path d="M 53 144 L 58 148 L 65 145 L 60 140 L 53 144" stroke-width="3" stroke="#99D9EA" fill="white"/>

    <path d="M 103 143 L 103 125 L 96 128 L 96 147 L 103 143" stroke-width="3" stroke="#765641" fill="#EAD7AF"/>
    <path d="M 96 128 L 96 147 L 91 142 L 91 124 L 96 128" stroke-width="3" stroke="#765641" fill="#EAD7AF"/>
    <path d="M 91 124 L 96 128 L 103 125 L 98 120 L 91 124" stroke-width="3" stroke="#99D9EA" fill="white"/>

    <line x1="92" y1="129" x2="63" y2="141" stroke-width="3" stroke="#99D9EA"/>

</svg>