<svg xmlns="http://www.w3.org/2000/svg"
     width="220.000000pt" height="120.000000pt" viewBox="0 0 220.000000 120.000000"
     preserveAspectRatio="xMidYMid meet">

    <path d="M 174 75 L 183 83 L 211 78 L 179 52 L 171 54 L 185 72 L 174 75" stroke-width="3" stroke="#99D9EA"
          fill="white"/>
    <path d="M 17 28 L 37 23 L 32 48 L 17 28" stroke-width="3" stroke="#99D9EA" fill="white"/>
    <path d="M 37 23 L 32 48 L 74 39 L 81 14 L 37 23" stroke-width="3" stroke="#99D9EA" fill="white"/>
    <path d="M 81 14 L 74 39 L 102 69 L 130 5 L 81 14" stroke-width="3" stroke="#99D9EA" fill="white"/>
        <path d="M 130 5 L 102 69 L 122 64 L 140 26 L 153 36 L 171 54 L 188 50 L 130 5" stroke-width="3" stroke="#99D9EA"
          fill="white"/>
    <path d="M 140 26 L 122 64 L 135 77 L 153 36 L 140 26" stroke-width="3" stroke="#99D9EA" fill="white"/>
    <path d="M 135 77 L 183 68 L 153 36 L 135 77" stroke-width="3" stroke="#99D9EA" fill="white"/>

</svg>