<svg xmlns="http://www.w3.org/2000/svg"
     width="230.000000pt" height="140.000000pt" viewBox="0 0 230.000000 140.000000"
     preserveAspectRatio="xMidYMid meet">

    <path d="M 46 59 L 33 64 L 4 44 L 61 19 L 66 23 L 48 33 L 66 45 L 46 59" stroke-width="3" stroke="#99D9EA" fill="white"/>

    <path d="M 221 42 L 150 89 L 157 31 L 221 42" stroke-width="3" stroke="#99D9EA" fill="white"/>
    <path d="M 150 89 L 157 31 L 99 12 L 46 34 L 150 89" stroke-width="3" stroke="#99D9EA" fill="white"/>
    <path d="M 122 19 L 113 71 L 89 85 L 95 31 L 122 19" stroke-width="3" stroke="#99D9EA" fill="white"/>
    <path d="M 89 85 L 95 31 L 44 55 L 89 85" stroke-width="3" stroke="#99D9EA" fill="white"/>
    <path d="M 221 42 L 105 4 L 99 12 L 157 31 L 221 42" stroke-width="3" stroke="#99D9EA" fill="white"/>
    <path d="M 105 4 L 99 12 L 46 34 L 105 4" stroke-width="3" stroke="#99D9EA" fill="white"/>
</svg>