<svg xmlns="http://www.w3.org/2000/svg"
     width="230.000000pt" height="150.000000pt" viewBox="0 0 230.000000 150.000000"
     preserveAspectRatio="xMidYMid meet">

    <path d="M 60 103 L 32 53 L 139 5 L 169 34 L 60 103" stroke-width="3" stroke="#99D9EA" fill="white"/>
    <path d="M 153 94 L 177 48 L 123 25 L 111 71 L 153 94" stroke-width="3" stroke="#99D9EA" fill="white"/>
    <path d="M 169 34 L 159 40 L 201 60 L 219 50 L 169 33" stroke-width="3" stroke="#99D9EA" fill="white"/>
    <line x1="31" y1="54" x2="3" y2="69" stroke-width="3" stroke="#99D9EA" />

    <path d="M 122 46 L 127 48 L 127 32 L 122 30 L 122 46" stroke-width="3" stroke="#765641" fill="#EAD7AF"/>
    <path d="M 127 32 L 127 48 L 134 43 L 134 28 L 127 32" stroke-width="3" stroke="#765641" fill="#EAD7AF"/>
    <path d="M 122 30 L 127 32 L 134 28 L 125 25 L 122 30" stroke-width="3" stroke="#99D9EA" fill="#B97A54"/>
</svg>