<svg xmlns="http://www.w3.org/2000/svg"
     width="248.000000pt" height="150.000000pt" viewBox="0 0 248.000000 150.000000"
     preserveAspectRatio="xMidYMid meet">


<path d="M 114 109 L 183 92 L 140 72 L 114 109" stroke-width="3" stroke="#99D9EA" fill="white"/>
<path d="M 114 109 L 140 72 L 120 56 L 90 85 L 114 109" stroke-width="3" stroke="#99D9EA" fill="white"/>
<path d="M 57 92 L 90 85 L 122 53 L 102 41 L 57 92" stroke-width="3" stroke="#99D9EA" fill="white"/>
<path d="M 57 92 L 102 41 L 79 17 L 17 34 L 57 92" stroke-width="3" stroke="#99D9EA" fill="white"/>
<path d="M 140 72 L 183 92 L 144 67 L 122 53 L 120 56 L 140 72" stroke-width="3" stroke="#99D9EA" fill="white"/>

<path d="M 186 100 L 215 127 L 231 111 L 201 87 L 186 100" stroke-width="3" stroke="#99D9EA" fill="white"/>
<path d="M 231 111 L 248 117 L 219 96 L 201 87 L 231 111" stroke-width="3" stroke="#99D9EA" fill="white"/>

</svg>