<?xml version="1.0" encoding="utf-8"?>
<!-- Generator: Adobe Illustrator 23.0.0, SVG Export Plug-In . SVG Version: 6.00 Build 0)  -->
<svg version="1.1" id="Слой_1" xmlns="http://www.w3.org/2000/svg" xmlns:xlink="http://www.w3.org/1999/xlink" x="0px" y="0px"
	 width="7200px" height="720px" viewBox="0 0 7200 720" style="enable-background:new 0 0 7200 720;" xml:space="preserve">
<style type="text/css">
	.st0{fill:#CCCCCC;}
	.st1{fill:#231F20;}
</style>
<g>
	<path class="st0" d="M1345.3,460.4c-65.2-82.4-78.4-263.7-78.4-263.7l0,0C1261.5,104.3,1184.8,31,1091,31
		c-93,0-169.1,72-175.8,163.3l-0.5-0.2c0,0,0.1,2.8,0.1,7.9c-0.1,1.7-0.1,3.5-0.1,5.3c0,0.5,0,1,0,1.6
		c-0.7,39.7-7.4,150.1-59.5,214.4c-64.4,79.4-127.5,190.7-83.6,221.6s109.5-65.2,148.4-50.2c38.9,15.1-7.9,126.3,52.3,110.8
		c60.2-15.5,78.2-117.9,124.6-91.6c46.4,26.3,48.5,112.1,112.5,89.5c64-22.6,13.4-127.1,70.2-115.8c56.9,11.3,95.8,65.6,133,45.6
		C1449.9,613.1,1410.6,542.8,1345.3,460.4z"/>
	<g>
		<path class="st1" d="M1017.5,192.2c37.1,18.5,61-6.9,68.8-23.3c17.4-36.7-35.9-53.8-61-52C1000.2,118.7,980.4,173.7,1017.5,192.2z
			"/>
		<path class="st1" d="M1134.2,198.9c37.1,18.5,61-6.9,68.8-23.3c17.4-36.7-35.9-53.8-61-52C1116.8,125.4,1097.1,180.4,1134.2,198.9
			z"/>
		<path class="st1" d="M1169.3,222.1c-4.9,3.8-10.4,6.8-15.9,9.3c0.5,4.7,1.9,18.3,1,21c-1.2,3.2-8.1,3.5-18,1.8
			c-6.5-1.1-7.1-9.7-6.8-15.5c-7.1,1.4-13.2,2.1-17.3,2.4c0.5,5.6,0.9,12,0.3,13.7c-1.2,3.2-8.1,3.5-18,1.8
			c-6.4-1.1-7.1-9.5-6.8-15.4c-2.9-0.1-9.3-0.6-17.3-2c0.4,5,0.6,10.2,0.1,11.7c-1.2,3.2-8.1,3.5-18,1.8c-8.8-1.5-6.8-16.8-6.3-20.2
			c-6.6-2.6-13.1-6.1-18.9-10.5c-24.2-18.7-34-18.3-33.8-4.1c0.3,14.2,10.4,56.9,77.6,80.2c8.2,2.8,21.1,4,27.1,3.8
			c6,0.2,17.1-0.9,25.3-3.8c67.3-23.2,79.6-65.4,79.8-79.6C1203.8,204.4,1193.5,203.4,1169.3,222.1z"/>
	</g>
</g>
</svg>
